<svg width="131" height="130" viewBox="0 0 131 130" fill="none" xmlns="http://www.w3.org/2000/svg">
<path d="M2 5.50077V39.536C5.57856 39.536 7.64012 42.1292 8.22358 43.4257V85.046C6.5121 88.3134 3.49107 89.2599 2.19449 89.3247V125.305C2.50567 127.172 4.39867 128.157 5.30628 128.417H40.1194C40.7418 124.216 43.6202 122.387 44.9816 121.999H86.2129C89.7914 122.776 90.6861 126.601 90.6861 128.417H125.694C127.872 127.794 128.676 126.083 128.806 125.305V89.7137C125.227 89.4025 123.425 87.1205 122.971 86.0184V44.2037C124.838 40.4695 127.768 39.536 129 39.536V7.05666C129 4.72282 126.666 2.71312 125.499 2H90.6861C89.1302 5.11179 86.537 6.66769 85.4349 7.05666H45.9541C42.9979 6.90107 41.3512 3.62073 40.8974 2H7.05666C3.78928 2.62236 2.32414 4.59316 2 5.50077Z" fill="#060606" fill-opacity="0.75" stroke="white" stroke-width="3"/>
<g filter="url(#filter0_d_347_143)">
<path fill-rule="evenodd" clip-rule="evenodd" d="M39.4405 47.1299C38.4176 48.1908 36.2989 50.1782 34.7324 51.5463C33.1653 52.9144 31.8737 54.244 31.8613 54.5002C31.8488 54.7564 34.6497 54.9666 38.0855 54.9666C43.8893 54.9666 44.4409 54.8584 45.8588 53.4399C46.6983 52.6004 47.3861 51.6912 47.3861 51.4189C47.3867 51.1471 48.016 50.1782 48.7853 49.2666C49.5545 48.3549 50.6738 47.0217 51.2733 46.304L52.3628 45L46.832 45.1001C41.5176 45.1965 41.2278 45.2761 39.4405 47.1299ZM58.7344 45.9471C58.3072 46.4328 57.9571 47.0801 57.9571 47.3855C57.9571 47.6914 57.1431 48.7934 56.1481 49.8344C54.4461 51.616 52.9822 53.8261 52.9822 54.6146C52.9822 54.808 58.439 54.9666 65.1085 54.9666C78.7273 54.9666 79.0227 54.8478 75.1143 50.9388C73.9483 49.7728 72.4888 47.9632 71.8706 46.9178C70.7488 45.0174 70.7457 45.0168 65.1297 45.0404C61.0807 45.0572 59.2947 45.3109 58.7344 45.9471ZM78.4848 45.4832C78.4904 45.9291 81.2378 49.6403 84.2252 53.2378C85.592 54.8839 85.8091 54.9299 92.315 54.9479C95.9914 54.9585 99 54.8074 99 54.6134C99 54.4187 96.8726 52.18 94.2726 49.6385L89.5446 45.0168H84.0119C80.9685 45.0168 78.481 45.227 78.4848 45.4832ZM32.508 64.7143C33.337 65.629 36.5339 68.9448 39.6122 72.0827C42.6904 75.2213 46.6908 79.4033 48.5023 81.3771C50.3138 83.3515 51.9928 84.7544 52.2335 84.4951C52.4741 84.2358 52.3218 83.8987 51.8939 83.7464C51.4667 83.5934 51.1166 82.9485 51.1166 82.3136C51.1166 81.678 50.8368 80.9853 50.4948 80.7739C50.1527 80.5624 49.8729 79.7229 49.8729 78.9083C49.8729 78.0936 49.5931 77.2541 49.251 77.0427C48.909 76.8313 48.6292 76.1155 48.6292 75.4513C48.6292 74.7872 48.3493 74.2443 48.0073 74.2443C47.6653 74.2443 47.3854 73.4048 47.3854 72.3787C47.3854 71.3526 47.1056 70.5131 46.7636 70.5131C46.4216 70.5131 46.1417 69.9535 46.1417 69.2694C46.1417 68.5854 45.8619 68.0257 45.5199 68.0257C45.1778 68.0257 44.898 67.3062 44.898 66.4269C44.898 63.5744 43.6829 63.0508 37.0607 63.0508H31L32.508 64.7143ZM51.7385 63.9469C51.7385 64.44 51.963 64.9817 52.2372 65.1514C52.5115 65.3206 53.1215 66.8765 53.5935 68.6084C54.0649 70.3396 54.6799 71.7569 54.9603 71.7569C55.2402 71.7569 55.4697 72.3203 55.4697 73.0093C55.4697 73.6977 55.793 74.8873 56.1885 75.6522C57.7363 78.6458 57.9571 79.2453 57.9571 80.4542C57.9571 81.1432 58.2369 81.7067 58.579 81.7067C58.921 81.7067 59.2008 82.4062 59.2008 83.2613C59.2008 84.1164 59.4303 84.816 59.7101 84.816C59.9906 84.816 60.6006 86.2152 61.0664 87.9253C61.5322 89.6354 62.0813 91.0346 62.2865 91.0346C62.4923 91.0346 63.0421 92.3635 63.5085 93.9884C63.9749 95.6133 64.4898 97.1811 64.6527 97.4721C64.9195 97.9484 65.9474 96.0368 67.2782 92.5892C67.5419 91.9052 68.2408 90.0862 68.8316 88.5471C70.6387 83.8347 72.3737 79.5849 72.9527 78.4506C73.2555 77.8567 73.5037 76.9469 73.5037 76.4295C73.5037 75.9115 73.7835 75.488 74.1255 75.488C74.4675 75.488 74.7474 74.6485 74.7474 73.6224C74.7474 72.5964 75.0272 71.7569 75.3692 71.7569C75.7113 71.7569 75.9911 71.1972 75.9911 70.5131C75.9911 69.8291 76.2709 69.2694 76.613 69.2694C76.955 69.2694 77.2348 68.4299 77.2348 67.4038C77.2348 66.3778 77.5147 65.5382 77.8567 65.5382C78.1987 65.5382 78.4785 64.9786 78.4785 64.2945C78.4785 63.0893 78.0638 63.0508 65.1085 63.0508C53.882 63.0508 51.7385 63.1944 51.7385 63.9469ZM86.0908 64.2858C85.666 64.9655 85.319 66.0849 85.319 66.7733C85.319 67.4623 85.0392 68.0257 84.6972 68.0257C84.3551 68.0257 84.0753 68.438 84.0753 68.9417C84.0753 69.446 83.5417 71.0548 82.89 72.5174C78.0936 83.2775 76.8368 87.1679 78.7895 85.2158C79.3025 84.7028 79.7223 84.02 79.7223 83.6985C79.7223 83.377 83.7799 79.0159 88.7393 74.0074C93.6986 68.9989 97.7563 64.6484 97.7563 64.3387C97.7563 64.0296 98.1064 63.6353 98.5336 63.4625C98.9614 63.2902 96.5101 63.1267 93.0867 63.0999C87.5198 63.0558 86.7804 63.1814 86.0908 64.2858Z" fill="#4BB3E2"/>
</g>
<defs>
<filter id="filter0_d_347_143" x="20" y="34" width="90" height="74.5442" filterUnits="userSpaceOnUse" color-interpolation-filters="sRGB">
<feFlood flood-opacity="0" result="BackgroundImageFix"/>
<feColorMatrix in="SourceAlpha" type="matrix" values="0 0 0 0 0 0 0 0 0 0 0 0 0 0 0 0 0 0 127 0" result="hardAlpha"/>
<feOffset/>
<feGaussianBlur stdDeviation="5.5"/>
<feComposite in2="hardAlpha" operator="out"/>
<feColorMatrix type="matrix" values="0 0 0 0 0.533333 0 0 0 0 0.807843 0 0 0 0 0.933333 0 0 0 1 0"/>
<feBlend mode="normal" in2="BackgroundImageFix" result="effect1_dropShadow_347_143"/>
<feBlend mode="normal" in="SourceGraphic" in2="effect1_dropShadow_347_143" result="shape"/>
</filter>
</defs>
</svg>
