<svg width="164" height="177" viewBox="0 0 164 177" fill="none" xmlns="http://www.w3.org/2000/svg">
<g filter="url(#filter0_d_30_21)">
<path fill-rule="evenodd" clip-rule="evenodd" d="M83.1343 21.3382C81.0464 21.3382 78.9863 20.7688 78.5561 20.0728C78.1005 19.3364 79.3621 18.8074 81.5702 18.8074C83.6581 18.8074 85.7182 19.3768 86.1484 20.0728C86.604 20.8093 85.3424 21.3382 83.1343 21.3382ZM31.1052 32.7229C32.6452 29.0065 38.0763 23.3755 41.2271 22.229C45.5851 20.6422 53.4394 21.4635 57.481 23.9285C60.7799 25.9392 62.1073 26.1834 63.4916 25.0344C64.8835 23.8791 65.2695 23.9702 65.2695 25.457C65.2695 26.501 64.4267 28.0549 63.3967 28.909C61.8706 30.1757 60.8001 29.8543 57.605 27.1666C49.2193 20.1095 34.9216 25.2103 32.9021 35.98C32.11 40.2014 31.9733 40.2861 27.1825 39.5193C14.8045 37.5402 7.11217 48.3859 12.9228 59.6238C14.6273 62.9176 14.6843 63.7186 13.2518 64.1957C12.2965 64.5146 9.94285 66.3468 8.02326 68.2677C0.901642 75.388 4.80917 88.5228 14.6337 90.4879C17.3631 91.0333 19.0625 92.4746 20.4684 95.4369C22.66 100.058 27.4267 102.326 32.3694 101.102C34.6407 100.539 35.9985 98.9078 37.1829 95.3192C39.0658 89.6123 42.7785 85.2049 47.9881 82.4957C51.9905 80.4142 54.6377 81.4771 50.7998 83.6257C49.4635 84.3723 46.4228 86.769 44.0413 88.9518C40.6716 92.0406 39.5682 94.1955 39.0633 98.6775C37.8611 109.34 44.6955 117.594 55.4526 118.476C61.4303 118.966 62.616 118.615 67.1258 115.021C71.742 111.343 72.2734 111.195 73.7286 113.185C75.3584 115.414 74.7713 118.054 72.9023 116.9C72.3253 116.544 69.3744 117.376 66.3463 118.75C54.7452 124.014 43.2846 120.34 38.5369 109.834C35.858 103.905 35.4645 103.589 30.7952 103.589C24.5239 103.589 21.5035 101.942 19.041 97.1818C17.7718 94.727 15.7814 93.1212 13.4214 92.6492C6.67688 91.3003 2 84.8317 2 76.8496C2 72.0993 3.87531 68.2804 7.86761 64.903C10.5515 62.6317 10.7894 61.8167 9.64675 58.8102C7.12356 52.1732 8.01819 46.9459 12.5179 42.0362C16.0294 38.2046 17.7592 37.3618 23.1839 36.8405C28.7896 36.3014 29.8512 35.7497 31.1052 32.7229ZM100.509 32.8292C97.07 34.6691 95.6439 32.9823 98.7302 30.7249C101.896 28.4092 108.715 28.4294 113.239 30.7691C116.539 32.4762 118.307 35.4157 120.314 42.5309C120.801 44.262 122.444 45.6641 124.511 46.1158C130.088 47.3331 131.07 47.7722 131.07 49.049C131.07 49.8196 129.565 49.8335 126.966 49.0882C124.709 48.4416 121.419 47.9114 119.656 47.9114C116.687 47.9114 116.486 47.5432 116.926 42.9182C117.312 38.8778 116.787 37.3099 114.17 34.6931C110.689 31.212 104.985 30.4338 100.509 32.8292ZM127.274 63.0961C143.302 63.0961 145.229 62.8556 147.52 60.5653C150.777 57.3082 154.483 57.3411 156.799 60.6475C160.576 66.0406 154.75 72.6156 148.945 69.509C147.465 68.7169 146.254 67.5186 146.254 66.8479C146.254 66.1191 138.848 65.6268 127.906 65.6268C116.518 65.6268 109.558 65.1472 109.558 64.3614C109.558 63.5782 116.306 63.0961 127.274 63.0961ZM150.27 63.9299C150.802 66.6999 154.479 67.0909 154.479 64.3792C154.479 63.3441 153.432 62.2963 152.15 62.0496C150.459 61.7244 149.944 62.2394 150.27 63.9299ZM136.443 72.6029C134.88 71.9158 133.601 70.9187 133.601 70.3885C133.601 68.3297 137.66 69.5711 140.626 72.5371C143.395 75.3058 143.745 76.7496 143.777 85.5074C143.797 90.9283 143.831 97.2565 143.851 99.5709C143.905 105.292 141.021 109.25 134.805 111.992C131.065 113.642 129.073 115.546 127.741 118.747C125.084 125.125 120.587 131.408 118.671 131.418C117.663 131.423 118.525 129.253 120.906 125.792C126.099 118.243 127.15 113.04 123.662 112.129C122.069 111.711 119.493 112.617 116.967 114.48C112.357 117.881 106.209 118.406 102.526 115.713C99.4401 113.456 100.866 111.769 104.305 113.609C108.471 115.839 111.747 115.2 116.198 111.292C119.513 108.381 120.875 107.877 122.683 108.888C125.77 110.616 132.663 110.506 136.086 108.675C140.589 106.264 142.827 99.4178 141.049 93.4844C139.898 89.6439 139.916 87.6902 141.127 84.7671C143.035 80.1611 140.874 74.5516 136.443 72.6029ZM81.283 125.733L80.7009 105.803C80.2833 91.4699 80.5225 85.8731 81.5525 85.8731C82.5547 85.8731 82.9849 91.5243 82.9849 104.675V123.478L91.0974 134.486C95.5591 140.54 100.542 147.482 102.17 149.912C103.961 152.586 106.536 154.623 108.695 155.075C110.655 155.485 113.142 157.165 114.219 158.809C115.993 161.517 115.983 162.093 114.103 164.96C112.963 166.7 110.918 168.123 109.558 168.123C106.434 168.123 102.778 162.686 103.78 159.529C104.326 157.813 101.262 152.713 92.9107 141.436L81.283 125.733ZM107.246 161.365C107.779 164.135 111.456 164.526 111.456 161.814C111.456 160.779 110.408 159.731 109.127 159.485C107.436 159.159 106.921 159.674 107.246 161.365Z" fill="#568CB1"/>
<path fill-rule="evenodd" clip-rule="evenodd" d="M67.3283 1.76136C65.9174 5.43858 66.4779 8.24142 69.0998 10.6128C71.4724 12.7614 71.6382 14.2204 71.3143 30.1061L70.9637 47.2787L66.197 47.6722C62.7779 47.9557 60.8457 48.9579 59.3652 51.2191C57.7708 53.6512 56.4042 54.2826 53.3761 53.9878C50.1481 53.674 49.3813 52.9869 49.051 50.117C48.808 48.0063 49.6824 45.3148 51.2654 43.3028C52.7042 41.4743 53.881 39.289 53.881 38.4463C53.881 36.1622 49.604 32.7267 46.7581 32.7267C41.1727 32.7267 39.2986 39.4472 43.7579 43.4825C45.5395 45.0946 46.2886 47.3799 46.2886 51.2014V56.6299L52.2992 57.0159C57.338 57.3398 58.3098 57.8105 58.3098 59.9326C58.3098 62.2622 57.3469 62.4925 46.2077 62.8227C35.3835 63.1441 33.8587 62.91 31.7759 60.6083C28.887 57.417 25.8121 57.3246 23.0751 60.3489C20.3203 63.3922 20.4291 66.0001 23.4205 68.7081C26.0665 71.1022 29.8285 70.5872 32.4098 67.4756C33.5664 66.0824 37.0247 65.6268 46.443 65.6268H58.9425V71.7007C58.9425 78.8097 60.4914 80.8115 65.992 80.8115C69.8553 80.8115 70.0362 81.0481 70.8499 87.1802C71.3143 90.6828 71.3548 94.0994 70.9384 94.7725C69.5883 96.9566 61.9175 96.0772 58.4364 93.3389C56.0878 91.4914 54.0923 90.9245 51.8855 91.4787C48.1538 92.4151 46.977 94.789 48.0741 99.1622C48.7233 101.749 49.6407 102.323 53.118 102.323C55.4551 102.323 58.0757 101.469 58.9425 100.425C59.9485 99.2128 62.7476 98.527 66.6893 98.527H72.8618V92.915C72.8618 89.8287 73.4173 85.8427 74.0956 84.0572C75.2104 81.1266 75.9924 80.8115 82.1624 80.8115C88.8032 80.8115 89.0183 80.9229 89.7864 84.7658C90.2217 86.9411 90.5773 93.9867 90.5773 100.424V112.127L100.102 124.899C107.674 135.052 109.472 138.291 108.868 140.695C108.041 143.992 110.903 147.877 114.16 147.877C117.753 147.877 120.947 145.249 120.947 142.293C120.947 138.88 119.166 137.167 114.45 136.043C112.128 135.489 108.193 131.337 101.48 122.354L91.8427 109.46V99.0901C91.8427 82.9994 92.4994 81.0216 97.9975 80.5635C101.277 80.2889 102.944 79.393 103.801 77.4405C104.667 75.4652 106.362 74.5719 109.877 74.2378C112.558 73.9822 115.007 74.0278 115.318 74.339C117.04 76.0625 115.66 87.0828 113.354 90.0147C109.041 95.4976 110.831 99.7924 117.43 99.7924C121.948 99.7924 124.505 95.2205 122.298 91.0941C121.506 89.6148 120.308 88.4038 119.637 88.4038C118.965 88.4038 118.416 84.7633 118.416 80.3142C118.416 71.273 117.868 70.6884 109.389 70.6884H104.364L104.747 64.0451L105.129 57.4018L121.896 57.0488L138.662 56.6957V49.3337C138.662 43.7875 139.286 41.2516 141.193 39.0537C144.403 35.3524 144.402 32.4673 141.188 29.5582C139.092 27.6626 138.103 27.5133 135.494 28.7028C131.495 30.5249 131.194 36.3634 134.925 39.7395C136.951 41.573 137.433 43.337 137.14 47.8443L136.764 53.6056L120.723 53.9587C104.87 54.3079 104.678 54.2788 104.273 51.4279C103.933 49.0313 102.903 48.4378 98.1696 47.9114L92.4754 47.2787L92.0667 39.6863C91.8414 35.5106 92.0287 28.5357 92.483 24.1853L93.3093 16.2766H103.136C111.355 16.2766 113.337 16.6904 115.252 18.8074C119.352 23.3375 126.008 21.38 126.008 15.644C126.008 14.1824 125.325 12.3033 124.49 11.4682C122.336 9.31447 115.951 9.57135 115.078 11.8478C114.502 13.3485 111.865 13.7459 102.5 13.7459H90.6507L90.2976 30.5123L89.9446 47.2787H81.7196H73.4945L73.1402 30.3174C72.8099 14.5481 72.9732 13.1575 75.4508 10.5204C77.1933 8.66533 77.974 6.43192 77.7032 4.0707C77.3438 0.926207 76.6985 0.409928 72.7062 0.0758653C69.3858 -0.201255 67.904 0.263141 67.3283 1.76136ZM70.9486 6.95579C73.1617 7.80486 75.7646 5.24751 74.6017 3.36714C73.6527 1.83096 72.0748 2.15364 70.3437 4.24026C69.0733 5.77138 69.1859 6.2788 70.9486 6.95579ZM119.124 17.1131C121.601 18.0634 122.73 16.9207 121.775 14.433C120.815 11.93 118.899 11.9262 117.94 14.4266C117.51 15.5465 118.012 16.6866 119.124 17.1131ZM137.713 36.2065C138.584 35.9168 139.295 34.9196 139.295 33.9921C139.295 33.0646 138.584 32.0674 137.713 31.7777C136.772 31.4638 136.131 32.361 136.131 33.9921C136.131 35.6232 136.772 36.5203 137.713 36.2065ZM45.2472 38.488C45.8192 41.2365 48.0653 41.4047 48.579 38.7373C48.8447 37.3517 48.2247 36.5229 46.9213 36.5229C45.7053 36.5229 45.0081 37.3416 45.2472 38.488ZM80.4542 55.4C80.4542 51.9556 80.1252 51.7076 75.5508 51.7076C72.8542 51.7076 68.8683 51.352 66.6931 50.9167L62.7387 50.1258V56.6109V63.0961H70.8283C79.6038 63.0961 80.4542 62.4153 80.4542 55.4ZM100.7 56.6337C100.7 51.8822 100.549 51.7076 96.4297 51.7076C94.0811 51.7076 90.5178 51.3798 88.5122 50.9787C86.5065 50.5776 84.4427 50.6725 83.9251 51.1887C83.4076 51.7063 82.9849 57.7283 82.9849 64.5728V77.0153H91.9148H100.846L100.456 71.6374L100.068 66.2595L94.0571 65.8736C87.2101 65.4345 85.7916 63.0961 92.3716 63.0961C99.4034 63.0961 100.7 62.0901 100.7 56.6337ZM25.8994 65.99C27.6457 67.7362 30.5776 65.3168 29.2742 63.2061C28.806 62.4494 27.9215 61.8307 27.3078 61.8307C25.3528 61.8307 24.4392 64.5297 25.8994 65.99ZM79.8215 76.3826V71.3211V66.2595L71.2801 65.885L62.7387 65.5117V71.3211V77.1305L71.2801 76.7572L79.8215 76.3826ZM115.742 96.3594C117.488 98.1056 120.42 95.6862 119.117 93.5755C118.649 92.8188 117.764 92.2 117.15 92.2C115.195 92.2 114.282 94.8991 115.742 96.3594ZM52.4726 98.8901C54.2188 100.636 57.1507 98.2169 55.8474 96.1063C55.3792 95.3496 54.4947 94.7308 53.881 94.7308C51.926 94.7308 51.0123 97.4299 52.4726 98.8901ZM115.041 143.857C116.29 144.1 117.15 143.455 117.15 142.275C117.15 141.102 116.069 140.285 114.515 140.285C111.431 140.285 111.866 143.242 115.041 143.857Z" fill="white"/>
</g>
<defs>
<filter id="filter0_d_30_21" x="0" y="0" width="164" height="176.123" filterUnits="userSpaceOnUse" color-interpolation-filters="sRGB">
<feFlood flood-opacity="0" result="BackgroundImageFix"/>
<feColorMatrix in="SourceAlpha" type="matrix" values="0 0 0 0 0 0 0 0 0 0 0 0 0 0 0 0 0 0 127 0" result="hardAlpha"/>
<feOffset dx="2" dy="4"/>
<feGaussianBlur stdDeviation="2"/>
<feComposite in2="hardAlpha" operator="out"/>
<feColorMatrix type="matrix" values="0 0 0 0 0.320764 0 0 0 0 0.498827 0 0 0 0 0.620833 0 0 0 1 0"/>
<feBlend mode="normal" in2="BackgroundImageFix" result="effect1_dropShadow_30_21"/>
<feBlend mode="normal" in="SourceGraphic" in2="effect1_dropShadow_30_21" result="shape"/>
</filter>
</defs>
</svg>
