<svg width="200" height="149" viewBox="0 0 200 149" fill="none" xmlns="http://www.w3.org/2000/svg">
<g filter="url(#filter0_d_30_25)">
<path d="M51.8876 7.5995C50.6871 8.47802 49.1209 10.9354 48.408 13.0615L47.1109 16.9275L64.0017 17.0183C53.8274 16.9413 51.8922 16.6354 51.5828 15.0543C50.8262 11.1895 54.4886 9.45314 63.3992 9.45314C70.8758 9.45314 72.2729 9.8073 75.4903 12.5142C79.1134 15.5628 79.2281 16.6355 72.7676 16.9337C72.7419 16.9349 72.7162 16.9361 72.6903 16.9372C72.5508 16.9435 72.4082 16.9494 72.2626 16.9549L87.3429 16.8393C85.7788 16.2182 84.2661 15.0748 82.0655 13.0661C79.3908 10.626 76.0733 8.03876 74.6923 7.31663C71.0632 5.4193 54.5898 5.62398 51.8876 7.5995Z" fill="white"/>
<path d="M72.1637 23.0771C73.6712 24.9446 77.2324 29.3763 80.0784 32.9271C83.1464 36.754 87.3067 40.3842 90.2976 41.8446C95.1743 44.226 96.2977 44.2847 123.799 43.6016L131.713 43.4049L127.799 40.4233L111.951 40.4624C100.921 40.4889 94.9362 40.0128 92.265 38.8974C88.4071 37.2853 75.2834 22.3343 76.2596 20.6646L68.2844 20.1186C69.5253 20.4468 70.8541 21.4535 72.1637 23.0771Z" fill="white"/>
<path d="M152.253 42.8945L152.983 46.5431C153.384 48.5496 155.094 51.6325 156.782 53.3953C159.708 56.4483 160.352 56.5989 170.495 56.5989C178.083 56.5989 180.411 56.7384 181.846 57.9151L176.67 52.1327C176.67 52.6916 173.306 53.1492 169.195 53.1492C160.803 53.1492 157.122 50.8701 157.122 45.6749C157.122 43.6036 157.381 43.0129 159.786 42.8545L152.253 42.8945Z" fill="white"/>
<path d="M14.7907 88.1556C17.0457 89.7355 27.0291 89.946 99.7555 89.946L102.153 86.2169C45.3722 86.4204 19.4513 86.1318 17.8529 85.2762L14.7907 88.1556Z" fill="white"/>
<path fill-rule="evenodd" clip-rule="evenodd" d="M87.3429 16.8393L72.2626 16.9549C70.1697 17.0349 67.4459 17.0443 64.0017 17.0183L47.1109 16.9275L38.0095 17.5553C28.969 18.1797 28.8436 18.2326 19.3581 25.4091C9.6737 32.7363 6.97144 36.5413 8.32717 40.9396C8.73998 42.2793 11.8574 47.0881 15.2553 51.6256C18.6532 56.1643 21.4337 60.4327 21.4337 61.1123C21.4337 61.7919 20.2206 62.3484 18.7372 62.3484C13.7271 62.3484 12.2345 65.5888 12.2345 76.46C12.2345 85.3924 12.4852 86.5411 14.7907 88.1556L17.8529 85.2762C16.3925 84.4943 15.6762 83.1202 15.9015 81.531C16.2477 79.1059 16.7387 79.0219 30.5374 79.0196C40.9233 79.0173 44.9468 78.6252 45.2952 77.5823C45.6609 76.4841 42.2388 76.1472 30.7283 76.1472H15.6842V72.7918C15.6842 72.5614 15.6833 72.3386 15.6825 72.1231C15.6751 70.2314 15.6699 68.9049 16.2746 67.9748C17.1561 66.6189 19.3334 66.1056 24.6891 65.9124L27.6132 62.3484L24.6891 59.1862C23.0803 57.4464 19.0845 52.4777 15.8107 48.1426C11.3629 42.2551 10.0382 39.6357 10.5764 37.7935C11.4261 34.882 16.0154 30.7044 25.3019 24.388L32.0449 19.8022H46.1645C56.4032 19.8022 60.4359 20.1978 60.8361 21.2407C61.1396 22.0307 61.3248 26.559 61.2466 31.3023L61.1051 39.9254L42.4193 40.2416C31.2607 40.4302 23.7335 41.0086 23.7335 41.679C23.7335 42.3621 31.1193 42.8002 42.6297 42.8002H61.526L65.9152 48.2622C70.9758 54.5602 72.4523 55.8147 72.9859 54.2681C73.1952 53.6586 71.4945 50.9725 69.2062 48.2978C64.1121 42.3471 63.7855 41.1225 64.2133 29.5729C64.5238 21.212 64.7756 20.3461 66.9892 20.0299C67.4063 19.9704 67.8397 20.0009 68.2844 20.1186L76.2596 20.6646C76.5379 20.1897 80.9282 19.8022 86.0176 19.8022H95.2697L108.804 27.8388C116.247 32.2591 123.566 36.8989 125.068 38.1488L127.799 40.4233L131.713 43.4049L152.253 42.8945L159.786 42.8545C160.447 42.8111 161.269 42.8002 162.293 42.8002C166.62 42.8002 168.216 43.4797 172.067 46.9582C174.599 49.2453 176.67 51.5739 176.67 52.1327L181.846 57.9151C182.244 58.242 182.574 58.6489 182.929 59.1552C186.678 64.5068 186.163 64.6482 162.893 64.6482H141.068L136.775 58.8987L132.483 53.1492H107.431C91.4958 53.1492 82.3782 53.5678 82.3782 54.2991C82.3782 55.0282 91.1105 55.4559 106.239 55.4663C119.361 55.4766 130.618 55.8641 131.252 56.3287C131.886 56.7933 133.897 59.3725 135.721 62.0609L139.036 66.948H161.923H184.812L184.478 76.4347L184.144 85.9213L102.153 86.2169L99.7555 89.946C177.976 89.946 182.297 89.839 184.77 87.8359C187.051 85.9892 187.435 84.4287 187.854 75.2882C188.232 67.0285 187.924 64.0491 186.373 61.0122C183.35 55.088 173.387 43.2452 170.211 41.7975C168.526 41.0305 160.744 40.5004 151.167 40.5004H134.971L123.005 33.3135C116.424 29.3613 110.144 25.6092 109.047 24.9768C107.951 24.3443 104.644 22.4044 101.699 20.6646C98.2043 18.6017 94.7051 17.5024 91.6349 17.5024C89.909 17.5024 88.6091 17.342 87.3429 16.8393ZM10.1498 104.34C9.31838 104.022 8.96421 103.234 9.36208 102.591C10.351 100.991 114.114 101.566 113.713 103.17C113.419 104.35 13.1303 105.483 10.1498 104.34ZM121.808 104.386C120.912 104.043 120.508 103.23 120.909 102.58C121.89 100.993 169.773 101.57 169.775 103.17C169.777 104.386 124.783 105.528 121.808 104.386ZM28.3802 119.656C24.4786 120.226 17.815 118.749 18.5946 117.485C19.6617 115.759 32.0737 116.091 31.501 117.831C31.2412 118.622 29.836 119.443 28.3802 119.656ZM87.9357 119.568C50.3835 119.336 39.3399 118.944 38.9696 117.831C38.5913 116.696 48.7955 116.394 87.4573 116.394C130.373 116.394 136.423 116.609 136.423 118.131C136.423 119.658 130.557 119.832 87.9357 119.568ZM33.541 133.695C33.1431 133.052 36.088 132.458 40.66 132.258C46.667 131.995 67.5354 132.116 81.8033 132.497C82.4357 132.514 82.177 133.029 81.2283 133.642C78.9699 135.101 34.4402 135.152 33.541 133.695ZM92.7273 132.638C96.9532 132.638 97.4269 132.829 95.3146 133.678C93.7726 134.298 91.682 134.298 90.14 133.678C88.0277 132.829 88.5014 132.638 92.7273 132.638Z" fill="#78B9D7"/>
<path d="M40.8888 65.7981H64.6986L70.3768 72.6894L76.0538 79.5808L96.9463 79.5888L117.839 79.5969L123.068 73.0045C126.678 68.4544 127.926 66.0499 127.094 65.2427C126.27 64.4412 124.383 65.7671 121.095 69.4617C120.85 69.7377 120.618 70.0007 120.397 70.2512C119.107 71.7152 118.19 72.7552 117.073 73.4901C114.333 75.2923 110.387 75.26 96.7627 75.1488C95.8104 75.141 94.8108 75.1329 93.7611 75.1249L76.9726 74.9973L71.9257 68.6729L66.8788 62.3484H47.2466H27.6132L24.6891 65.9124C27.958 65.7945 32.411 65.7958 38.476 65.7976L40.8888 65.7981Z" fill="white"/>
</g>
<defs>
<filter id="filter0_d_30_25" x="0" y="0" width="200" height="148.762" filterUnits="userSpaceOnUse" color-interpolation-filters="sRGB">
<feFlood flood-opacity="0" result="BackgroundImageFix"/>
<feColorMatrix in="SourceAlpha" type="matrix" values="0 0 0 0 0 0 0 0 0 0 0 0 0 0 0 0 0 0 127 0" result="hardAlpha"/>
<feOffset dx="2" dy="4"/>
<feGaussianBlur stdDeviation="5"/>
<feComposite in2="hardAlpha" operator="out"/>
<feColorMatrix type="matrix" values="0 0 0 0 0.470588 0 0 0 0 0.72549 0 0 0 0 0.843137 0 0 0 1 0"/>
<feBlend mode="normal" in2="BackgroundImageFix" result="effect1_dropShadow_30_25"/>
<feBlend mode="normal" in="SourceGraphic" in2="effect1_dropShadow_30_25" result="shape"/>
</filter>
</defs>
</svg>
