<svg width="150" height="174" viewBox="0 0 150 174" fill="none" xmlns="http://www.w3.org/2000/svg">
<g filter="url(#filter0_d_30_36)">
<path d="M107.643 104.02C107.369 104.293 107.145 106.655 107.145 109.268C107.145 112.861 107.425 114.126 108.296 114.46C109.86 115.06 110.052 114.754 110.595 110.793C111.333 105.404 109.793 101.87 107.643 104.02Z" fill="white"/>
<path d="M120.286 104.703C119.607 106.472 119.762 112.704 120.515 113.894C120.878 114.466 121.713 114.729 122.37 114.477C123.264 114.134 123.565 112.991 123.565 109.951C123.565 105.269 123.058 103.522 121.699 103.522C121.172 103.522 120.536 104.053 120.286 104.703Z" fill="white"/>
<path d="M120.711 83.537C119.635 84.6133 119.553 91.1531 120.591 93.0944C121.032 93.9176 121.812 94.3319 122.457 94.0848C123.274 93.7714 123.565 92.4294 123.565 88.9789C123.565 84.0296 122.413 81.8345 120.711 83.537Z" fill="white"/>
<path d="M108.04 83.5191C107.534 84.0259 107.145 86.4546 107.145 89.1169C107.145 93.2243 107.322 93.8191 108.55 93.8191C110.124 93.8191 110.851 91.9054 110.866 87.7227C110.883 83.1466 109.89 81.6696 108.04 83.5191Z" fill="white"/>
<path d="M107.643 126.411C107.369 126.684 107.145 129 107.145 131.556C107.145 135.178 107.415 136.307 108.371 136.674C110.027 137.309 110.245 136.972 110.683 133.085C111.292 127.688 109.75 124.303 107.643 126.411Z" fill="white"/>
<path d="M120.286 127.094C119.599 128.885 119.766 135.101 120.534 136.315C121.096 137.203 121.413 137.219 122.389 136.41C124.054 135.027 124.051 127.006 122.384 126.366L122.361 126.357C121.535 126.041 121.146 125.891 120.888 126.015C120.658 126.126 120.532 126.454 120.294 127.075L120.286 127.094Z" fill="white"/>
<path d="M114.609 35.1754C114.609 35.7613 114.105 36.745 113.489 37.3608C112.873 37.9765 112.369 38.6468 112.369 38.8498C112.369 39.3178 107.895 43.8117 107.429 43.8117C107.11 43.8117 106.505 44.2707 103.947 46.4509C103.448 46.8756 100.436 48.5199 97.2553 50.1037C91.5104 52.9638 90.7103 53.7027 92.2978 54.6842C93.2495 55.2724 101.174 52.7578 101.174 51.8674C101.174 51.542 101.701 51.2755 102.346 51.2755C102.992 51.2755 103.959 50.856 104.494 50.3425C105.03 49.8298 106.238 48.9058 107.178 48.29C110.955 45.8157 117.876 38.2415 118.682 35.6993L114.609 35.1754Z" fill="white"/>
<path d="M113.019 52.7683C112.72 52.7683 112.032 53.2094 111.489 53.749C109.577 55.6515 97.3426 60.9784 94.8878 60.9784C92.4471 60.9784 91.3111 62.4182 92.6755 63.7826C93.6562 64.7633 94.2757 64.7379 98.039 63.5609C100.379 62.8295 102.797 61.9875 103.413 61.6897C104.029 61.3919 106.255 60.4 108.361 59.4857C110.466 58.5706 113.153 57.0167 114.332 56.0314C120.315 51.0314 122.058 49.3282 122.065 48.4766C122.069 47.9638 122.375 47.5436 122.746 47.5436C123.116 47.5436 124.105 46.4599 124.943 45.1358L125.776 35.9371C125.174 39.5983 115.286 52.7683 113.019 52.7683Z" fill="white"/>
<path fill-rule="evenodd" clip-rule="evenodd" d="M74.7482 92.2114C74.534 92.5585 74.131 95.5686 73.8533 98.8997C73.4368 103.887 73.5674 105.292 74.59 106.852C75.6879 108.527 76.3425 108.747 80.2498 108.747C86.0551 108.747 86.9926 107.523 86.9926 99.9484C86.9926 92.1084 86.5694 91.58 80.2931 91.58C77.4583 91.58 74.9632 91.8643 74.7482 92.2114ZM81.0387 105.172C83.2323 104.85 83.2607 104.786 83.2607 100.17C83.2607 95.0051 82.4553 93.7878 79.5288 94.5282C77.8158 94.9618 77.6442 95.391 77.4374 99.7528C77.1896 104.986 77.6434 105.67 81.0387 105.172Z" fill="white"/>
<path fill-rule="evenodd" clip-rule="evenodd" d="M62.8457 123.297C61.3223 124.821 61.0536 136.995 62.5113 138.453C63.0189 138.96 65.4513 139.348 68.1278 139.348C72.3426 139.348 72.9144 139.168 73.4659 137.669C74.0877 135.978 74.0511 123.919 73.4227 123.29C73.2368 123.104 71.0574 122.753 68.5801 122.509C64.9766 122.155 63.8302 122.313 62.8457 123.297ZM70.5722 136.363V131.138V125.913H68.0846C64.8497 125.913 64.6012 126.237 64.6012 130.455C64.6012 135.521 65.0916 136.363 68.0398 136.363H70.5722Z" fill="white"/>
<path d="M39.2243 122.928H42.1926C46.5657 122.928 47.5554 121.019 47.2792 113.121C47.1061 108.169 46.8299 106.881 45.9417 106.881C45.0625 106.881 44.7759 108.11 44.6057 112.599C44.3721 118.747 43.4413 120.434 40.7529 119.58L39.2243 122.928Z" fill="white"/>
<path d="M20.1916 132.233L17.4315 132.682C12.7719 133.438 12.3546 134.204 12.3546 142.008C12.3546 149.282 13.1764 151.242 15.1215 148.606C15.7775 147.717 16.0067 146.304 15.735 144.831C15.4954 143.537 15.5193 141.101 15.7887 139.42C16.2306 136.657 16.4851 136.363 18.4414 136.363H20.6059L20.1916 132.233Z" fill="#FBFBFB"/>
<path fill-rule="evenodd" clip-rule="evenodd" d="M56.391 18.6296C56.391 10.4172 56.6657 6.51664 57.2867 5.89566C57.9203 5.26198 62.324 5 72.3419 5C84.4706 5 86.6978 5.17689 87.8666 6.23526C89.0832 7.33617 89.2317 8.79907 89.2317 19.6701V31.8696H108.179H127.125L128.331 33.7095C129.35 35.2649 129.536 38.1348 129.536 52.2757V69.002L131.718 69.4386C132.918 69.6782 134.597 70.6231 135.45 71.5382C136.982 73.1825 137 73.7042 137 116.337V159.472L135.321 159.878C134.397 160.101 104.756 160.192 69.4527 160.079L5.26403 159.874L5.06922 128.81C4.89308 100.642 4.99011 97.651 6.11266 96.7158C6.8568 96.0963 9.91248 95.5365 13.7713 95.3119L20.1916 94.9387V92.6995C20.1916 90.5127 20.0961 90.4552 16.1089 90.229C13.8638 90.1021 11.5963 89.6409 11.0709 89.205C10.3857 88.6363 10.1155 85.7149 10.1155 78.8803C10.1155 70.8769 10.3051 69.2759 11.2963 68.8953C11.9456 68.646 15.9402 68.4422 20.173 68.4422C20.4449 68.4422 20.7082 68.4424 20.9632 68.4427C25.0893 68.4462 27.0383 68.4478 27.9578 67.4757C28.7811 66.6053 28.7792 64.9544 28.7755 61.8254C28.7752 61.6096 28.775 61.3869 28.775 61.1568C28.775 56.483 28.6421 56.1113 26.1627 53.8401C27.0123 54.4738 29.3105 55.5896 31.7432 55.019C30.9435 55.4044 30.6988 65.2594 31.4672 67.2615C31.8426 68.2392 33.3346 68.4422 40.155 68.4422C47.1217 68.4422 48.5421 68.643 49.381 69.7484C50.6439 71.4121 50.7842 85.0156 49.5616 87.3376C48.3115 89.7133 47.4919 90.0633 43.1428 90.076L39.2243 90.0872V92.6995V95.3119H45.826C51.2567 95.3119 52.6457 95.5522 53.654 96.6673C54.7415 97.869 54.9027 101.402 55.0759 127.829L55.2715 157.635H73.9309H92.5904L92.8114 121.435C93.0121 88.5176 92.9173 85.0156 91.7612 82.81C91.0618 81.4762 90.2065 80.3843 89.8609 80.3843C89.5146 80.3843 89.2317 79.9088 89.2317 79.3267C89.2317 78.7452 88.9772 78.1578 88.6667 78.0205C88.3555 77.8839 86.9366 76.2606 85.5133 74.4133C84.0907 72.566 82.7487 70.8866 82.5315 70.6814C82.315 70.4761 80.6274 68.2929 78.7824 65.8299C76.9374 63.3668 75.258 61.1837 75.0505 60.9784C74.843 60.7732 73.1629 58.5915 71.3164 56.13C69.4706 53.6684 67.7054 51.3173 67.3949 50.9053C67.0836 50.4933 64.9624 47.8048 62.6808 44.9313C57.5487 38.4684 57.2523 38.0885 54.6736 34.6536C51.0499 29.8283 50.42 30.6986 50.42 40.5284V49.1871L54.943 54.8962C57.4307 58.0362 60.2662 61.6129 61.2432 62.8444C62.221 64.0759 64.2847 66.7629 65.8297 68.8154C67.374 70.868 68.9056 72.6593 69.2317 72.7959C69.5586 72.9332 69.8259 73.5206 69.8259 74.102C69.8259 76.2994 67.6128 75.0201 64.8759 71.2411C63.3152 69.0856 61.8433 67.1547 61.6052 66.9495C61.3679 66.7442 59.6161 64.5611 57.7136 62.098C55.8103 59.635 53.3913 56.6442 52.3367 55.4508L50.42 53.2825V58.2497C50.42 62.7474 50.2767 63.2176 48.9019 63.2176C47.4158 63.2176 47.3897 62.9019 47.6808 48.0571C48.0346 30.0239 48.2659 29.2499 53.0987 29.9746L56.391 30.4687V18.6296ZM86.7522 39.3767C87.0493 16.4248 86.9269 9.17898 86.2283 8.33706C85.4886 7.44588 82.8076 7.23914 71.9739 7.23914H58.6302V21.5368V35.8337L60.6431 38.5169C61.7508 39.9925 62.8644 41.3673 63.1189 41.5726C63.3734 41.7778 65.0707 43.961 66.8903 46.424C68.71 48.8871 71.5425 52.607 73.1846 54.6909C77.7718 60.5112 79.4362 62.6526 81.2335 65.0455C83.6092 68.2079 85.567 70.1171 85.9947 69.6894C86.1984 69.4857 86.5395 55.8448 86.7522 39.3767ZM114.609 35.1754C114.609 34.2924 112.419 34.1088 101.92 34.1088H89.2317V51.6614V69.214L108.078 69.0147L126.924 68.8154L127.13 56.9032C127.37 43.0474 127.119 41.698 124.943 45.1358L125.776 35.9371C125.795 35.8218 125.804 35.7159 125.804 35.6202C125.804 34.3297 125.32 34.1088 122.496 34.1088C119.775 34.1088 119.098 34.3917 118.682 35.6993L114.609 35.1754ZM47.1419 86.9718C47.5658 86.2852 47.8174 75.2768 47.4964 71.4277C47.4569 70.953 41.0776 70.6814 29.9819 70.6814C12.9301 70.6814 12.5196 70.7172 12.1225 72.2346C11.6105 74.1938 12.0859 86.0627 12.7174 87.0853C13.422 88.225 46.4343 88.116 47.1419 86.9718ZM134.388 115.339C134.388 92.0771 134.135 72.7914 133.825 72.4824C133.193 71.8502 123.869 71.7047 103.226 72.004C89.3101 72.2062 89.2317 72.2167 89.2399 73.8699C89.2437 74.7842 90.5842 77.2122 92.2172 79.2647L95.1871 82.9966L95.1945 120.515L95.2028 158.032L114.795 157.834L134.388 157.635V115.339ZM36.612 157.635L36.806 123.861L37.0001 90.0872H30.2521C25.5417 90.0872 23.3951 90.3694 23.1458 91.0202C22.9487 91.5337 22.8756 106.731 22.9823 124.794L23.1771 157.635H29.8946H36.612ZM20.4028 116.572C20.5193 107.958 20.429 100.154 20.2021 99.2304C19.8184 97.6682 19.3855 97.551 13.9825 97.551C10.4603 97.551 7.82262 97.9033 7.27926 98.4467C6.61348 99.1124 6.3836 106.77 6.3836 128.288V157.233L8.07863 157.658C9.01086 157.892 12.1173 157.982 14.9826 157.859L20.1916 157.635L20.3984 146.999L20.6059 136.363L20.1916 132.233L20.4028 116.572ZM52.4815 128.202C52.6345 105.151 52.4725 98.64 51.7351 98.172C51.2171 97.8428 48.1906 97.5689 45.0087 97.5622L39.2243 97.551V108.324C39.2243 118.524 39.3056 119.121 40.7529 119.58L39.2243 122.928V140.497V158.066L45.7551 157.85L52.2859 157.635L52.4815 128.202Z" fill="#88CEEE"/>
<path fill-rule="evenodd" clip-rule="evenodd" d="M31.7918 55.0074C32.2195 55.0074 33.3107 54.3163 34.2176 53.4721C36.7732 51.0904 36.5373 45.753 33.7712 43.3736C31.097 41.0732 29.1638 41.0986 26.0462 43.4766C23.9377 45.085 23.5503 45.8508 23.5503 48.4139C23.5503 50.9277 23.9982 51.8577 26.1627 53.8401C27.0123 54.4738 29.3105 55.5896 31.7432 55.019C31.7592 55.0113 31.7754 55.0074 31.7918 55.0074ZM28.3585 51.5285C31.459 52.7183 34.5564 48.8931 32.4987 46.4143C31.1656 44.8081 28.2227 45.0395 27.2673 46.8256C26.3269 48.5826 26.8784 50.9605 28.3585 51.5285Z" fill="white"/>
</g>
<defs>
<filter id="filter0_d_30_36" x="0" y="0" width="150" height="173.127" filterUnits="userSpaceOnUse" color-interpolation-filters="sRGB">
<feFlood flood-opacity="0" result="BackgroundImageFix"/>
<feColorMatrix in="SourceAlpha" type="matrix" values="0 0 0 0 0 0 0 0 0 0 0 0 0 0 0 0 0 0 127 0" result="hardAlpha"/>
<feOffset dx="4" dy="4"/>
<feGaussianBlur stdDeviation="4.5"/>
<feComposite in2="hardAlpha" operator="out"/>
<feColorMatrix type="matrix" values="0 0 0 0 0.533333 0 0 0 0 0.807843 0 0 0 0 0.933333 0 0 0 1 0"/>
<feBlend mode="normal" in2="BackgroundImageFix" result="effect1_dropShadow_30_36"/>
<feBlend mode="normal" in="SourceGraphic" in2="effect1_dropShadow_30_36" result="shape"/>
</filter>
</defs>
</svg>
