<svg width="131" height="130" viewBox="0 0 131 130" fill="none" xmlns="http://www.w3.org/2000/svg">
<path d="M2 5.50077V39.536C5.57856 39.536 7.64012 42.1292 8.22358 43.4257V85.046C6.5121 88.3134 3.49107 89.2599 2.19449 89.3247V125.305C2.50567 127.172 4.39867 128.157 5.30628 128.417H40.1194C40.7418 124.216 43.6202 122.387 44.9816 121.999H86.2129C89.7914 122.776 90.6861 126.601 90.6861 128.417H125.694C127.872 127.794 128.676 126.083 128.806 125.305V89.7137C125.227 89.4025 123.425 87.1205 122.971 86.0184V44.2037C124.838 40.4695 127.768 39.536 129 39.536V7.05666C129 4.72282 126.666 2.71312 125.499 2H90.6861C89.1302 5.11179 86.537 6.66769 85.4349 7.05666H45.9541C42.9979 6.90107 41.3512 3.62073 40.8974 2H7.05666C3.78928 2.62236 2.32414 4.59316 2 5.50077Z" fill="black" fill-opacity="0.75" stroke="white" stroke-width="3"/>
<g filter="url(#filter0_d_347_138)">
<path fill-rule="evenodd" clip-rule="evenodd" d="M71.7038 36.7142C71.6632 41.2619 68.8657 62.9816 68.2399 63.6087C67.8683 63.979 61.1987 57.9392 53.4182 50.1844L39.2723 36.0871L39.3507 65.1196L39.4291 94.1521L44.0133 79.4656C46.5338 71.3891 48.9124 64.4655 49.2976 64.079C49.6828 63.6938 55.2387 67.8699 61.642 73.3596C68.0467 78.8493 74.7554 84.4552 76.5515 85.8175L79.8167 88.2961V73.9921C79.8167 66.1265 80.3059 59.6894 80.9033 59.6894C83.2387 59.6894 90.6907 68.7686 89.946 70.7066C89.4095 72.104 91.284 73.8664 96.0872 76.4815L103 80.244L102.02 73.7096C100.927 66.4238 99.032 59.4501 98.8536 62.0544C98.7901 62.9843 98.2239 63.7438 97.5968 63.7438C96.6345 63.7438 87.9715 54.0983 74.7554 38.3117C72.7552 35.9209 71.7146 35.3776 71.7038 36.7142ZM28.5726 45.9637C27.6725 47.6463 27.832 52.8076 29.0619 61.8436L30.885 75.2314L31.0242 59.3515C31.1013 50.6169 30.881 43.4716 30.535 43.4716C30.1904 43.4716 29.3065 44.5933 28.5726 45.9637Z" fill="#0FEE7C"/>
</g>
<defs>
<filter id="filter0_d_347_138" x="24" y="36" width="83" height="66.1521" filterUnits="userSpaceOnUse" color-interpolation-filters="sRGB">
<feFlood flood-opacity="0" result="BackgroundImageFix"/>
<feColorMatrix in="SourceAlpha" type="matrix" values="0 0 0 0 0 0 0 0 0 0 0 0 0 0 0 0 0 0 127 0" result="hardAlpha"/>
<feOffset dy="4"/>
<feGaussianBlur stdDeviation="2"/>
<feComposite in2="hardAlpha" operator="out"/>
<feColorMatrix type="matrix" values="0 0 0 0 0.0588235 0 0 0 0 0.933333 0 0 0 0 0.486275 0 0 0 1 0"/>
<feBlend mode="normal" in2="BackgroundImageFix" result="effect1_dropShadow_347_138"/>
<feBlend mode="normal" in="SourceGraphic" in2="effect1_dropShadow_347_138" result="shape"/>
</filter>
</defs>
</svg>
