<svg width="141" height="159" viewBox="0 0 141 159" fill="none" xmlns="http://www.w3.org/2000/svg">
<g filter="url(#filter0_d_30_27)">
<path fill-rule="evenodd" clip-rule="evenodd" d="M38.3638 135.253V136.912C38.3638 138.116 38.2504 138.571 37.9502 138.571C37.6706 138.571 37.473 139.134 37.34 140.309C37.1062 142.377 37.3738 144.001 37.949 144.001C38.222 144.001 38.3638 144.362 38.3638 145.056C38.3638 145.767 38.5037 146.112 38.7924 146.112C39.028 146.112 39.3082 146.511 39.4153 146.998C39.5613 147.662 39.8301 147.931 40.4949 148.077C40.9817 148.184 41.3802 148.447 41.3802 148.662C41.3802 148.883 41.9008 149.135 42.5867 149.244C43.4129 149.377 43.7933 149.59 43.7933 149.921C43.7933 150.33 44.1067 150.386 45.8101 150.277C47 150.201 47.8763 150.001 47.9469 149.789C48.0129 149.591 48.5984 149.344 49.2481 149.241C49.9154 149.134 50.4294 148.882 50.4294 148.662C50.4294 148.447 50.8278 148.184 51.3147 148.077C51.9795 147.931 52.2483 147.662 52.3943 146.998C52.5013 146.511 52.7816 146.112 53.0171 146.112C53.3058 146.112 53.4458 145.767 53.4458 145.056C53.4458 144.319 53.5821 144.001 53.8982 144.001C54.2668 144.001 54.3507 143.498 54.3507 141.286C54.3507 139.074 54.2668 138.571 53.8982 138.571C53.5851 138.571 53.4458 138.257 53.4458 137.551C53.4458 136.784 53.2959 136.491 52.8425 136.372C52.5107 136.286 52.2392 135.998 52.2392 135.734C52.2392 135.469 52.0356 135.253 51.7868 135.253C51.5379 135.253 51.3343 135.037 51.3343 134.772C51.3343 134.508 51.0628 134.221 50.731 134.134C50.3992 134.047 50.1277 133.788 50.1277 133.559C50.1277 133.33 49.9199 133.142 49.6659 133.142C49.4116 133.142 49.1257 132.938 49.0304 132.689C48.9347 132.44 48.6675 132.237 48.4364 132.237C48.2054 132.237 48.0163 131.98 48.0163 131.667C48.0163 131.255 47.7246 131.043 46.9605 130.899L44.4628 132.27C44.6028 132.315 44.6982 132.403 44.6982 132.503C44.6982 132.725 44.1995 132.939 43.52 133.053C43.475 133.061 43.4292 133.068 43.3827 133.074L41.5511 133.869C41.4871 133.92 41.3987 133.958 41.2841 133.987L41.2764 133.989L38.3638 135.253ZM49.2228 136.95C49.2228 136.722 48.7987 136.45 48.2802 136.347C47.2658 136.144 44.3721 136.158 43.2654 136.371C42.892 136.443 42.5867 136.68 42.5867 136.898C42.5867 137.116 42.3153 137.365 41.9835 137.452C41.6517 137.539 41.3802 137.826 41.3802 138.09C41.3802 138.355 41.1766 138.571 40.9277 138.571C40.5618 138.571 40.4762 139.047 40.4795 141.06C40.484 143.942 40.681 144.906 41.2647 144.906C41.4939 144.906 41.6818 145.098 41.6818 145.334C41.6818 145.57 42.089 145.852 42.5867 145.961C43.0844 146.071 43.4917 146.353 43.4917 146.589C43.4917 146.921 44.0002 147.017 45.754 147.017C47.4833 147.017 48.0163 146.919 48.0163 146.598C48.0163 146.358 48.4672 146.095 49.072 145.981C49.7039 145.863 50.1277 145.607 50.1277 145.345C50.1277 145.103 50.3157 144.906 50.5449 144.906C51.1298 144.906 51.3255 143.941 51.3301 141.031C51.334 138.767 51.274 138.499 50.731 138.357C50.3992 138.27 50.1277 138.011 50.1277 137.782C50.1277 137.553 49.9241 137.365 49.6753 137.365C49.4264 137.365 49.2228 137.178 49.2228 136.95Z" fill="white"/>
<path fill-rule="evenodd" clip-rule="evenodd" d="M110.242 136.083C110.471 137.243 110.164 138.571 109.666 138.571C109.342 138.571 109.249 139.176 109.249 141.286C109.249 143.498 109.333 144.001 109.702 144.001C110.006 144.001 110.154 144.305 110.154 144.934C110.154 145.613 110.318 145.91 110.757 146.025C111.091 146.112 111.361 146.436 111.361 146.751C111.361 147.063 111.564 147.319 111.813 147.319C112.062 147.319 112.266 147.522 112.266 147.771C112.266 148.023 112.534 148.224 112.869 148.224C113.201 148.224 113.472 148.412 113.472 148.643C113.472 148.881 113.918 149.145 114.506 149.255C115.074 149.362 115.595 149.615 115.662 149.817C115.743 150.058 116.494 150.184 117.846 150.184C119.198 150.184 119.949 150.058 120.029 149.817C120.097 149.615 120.617 149.362 121.186 149.255C121.755 149.149 122.22 148.884 122.22 148.667C122.22 148.449 122.618 148.184 123.105 148.077C123.77 147.931 124.039 147.662 124.185 146.998C124.292 146.511 124.572 146.112 124.807 146.112C125.043 146.112 125.236 145.841 125.236 145.509C125.236 145.177 125.424 144.906 125.653 144.906C126.237 144.906 126.434 143.942 126.438 141.06C126.442 139.056 126.355 138.571 125.994 138.571C125.703 138.571 125.477 138.145 125.352 137.365C125.235 136.637 124.995 136.158 124.745 136.158C124.517 136.158 124.331 135.954 124.331 135.706C124.331 135.454 124.063 135.253 123.728 135.253C123.326 135.253 123.125 135.052 123.125 134.65C123.125 134.315 122.923 134.047 122.672 134.047C122.423 134.047 122.22 133.843 122.22 133.594C122.22 133.343 121.951 133.142 121.616 133.142C121.214 133.142 121.013 132.941 121.013 132.538C121.013 132.136 120.812 131.935 120.41 131.935C120.078 131.935 119.807 131.742 119.807 131.507L116.187 132.83C115.938 132.996 115.293 133.134 114.754 133.137C114.086 133.14 113.774 133.286 113.774 133.594C113.774 133.921 113.439 134.047 112.567 134.047L110.242 136.083ZM121.013 136.947C121.013 136.718 120.708 136.448 120.334 136.348C119.569 136.143 116.013 136.155 115.207 136.366C114.916 136.442 114.679 136.698 114.679 136.934C114.679 137.171 114.407 137.365 114.075 137.365C113.673 137.365 113.472 137.566 113.472 137.968C113.472 138.3 113.285 138.571 113.057 138.571C112.586 138.571 112.266 139.854 112.266 141.738C112.266 143.623 112.586 144.906 113.057 144.906C113.285 144.906 113.472 145.103 113.472 145.345C113.472 145.607 113.896 145.863 114.528 145.981C115.133 146.095 115.584 146.358 115.584 146.598C115.584 146.919 116.117 147.017 117.846 147.017C119.624 147.017 120.108 146.923 120.108 146.578C120.108 146.316 120.532 146.06 121.164 145.941C121.769 145.828 122.22 145.564 122.22 145.325C122.22 145.094 122.408 144.906 122.637 144.906C122.936 144.906 123.089 144.36 123.177 142.985C123.351 140.241 123.148 138.571 122.64 138.571C122.409 138.571 122.22 138.3 122.22 137.968C122.22 137.566 122.018 137.365 121.616 137.365C121.285 137.365 121.013 137.177 121.013 136.947Z" fill="white"/>
<path fill-rule="evenodd" clip-rule="evenodd" d="M85.4196 85.9351C85.4196 86.6723 85.2832 86.9908 84.9671 86.9908C84.6082 86.9908 84.5147 87.4264 84.5147 89.1023C84.5147 90.7489 84.4182 91.2138 84.0758 91.2138C83.8134 91.2138 83.5576 91.6376 83.439 92.2695C83.3256 92.8743 83.062 93.3252 82.8222 93.3252C82.5154 93.3252 82.4032 93.7699 82.4032 94.9843C82.4032 96.1957 82.2907 96.6433 81.986 96.6433C81.5106 96.6433 81.2069 97.5482 81.2009 98.981C81.1978 99.6494 81.0527 99.9613 80.7442 99.9613C80.4024 99.9613 80.2917 100.33 80.2917 101.47C80.2917 102.548 80.1735 102.978 79.877 102.978C79.4634 102.978 79.0852 104.22 79.0852 105.579C79.0852 105.992 78.9063 106.296 78.6632 106.296C78.3624 106.296 78.1808 106.901 78.0294 108.407C77.9127 109.569 77.6955 110.519 77.5465 110.519C77.3972 110.519 77.2753 111.062 77.2753 111.725C77.2753 112.389 77.3936 112.932 77.538 112.932C77.6825 112.932 77.891 113.611 78.0011 114.44C78.138 115.473 78.3404 115.948 78.643 115.948C78.8861 115.948 79.0852 116.165 79.0852 116.429C79.0852 116.693 79.3566 116.981 79.6884 117.067C80.0202 117.154 80.2917 117.413 80.2917 117.643C80.2917 117.918 80.6498 118.06 81.3475 118.06C82.0847 118.06 82.4032 118.196 82.4032 118.512C82.4032 118.863 82.8011 118.965 84.1753 118.965C86.523 118.965 87.8327 119.248 87.8327 119.756L89.9442 117.004C89.9442 116.267 90.0805 115.948 90.3967 115.948C90.6455 115.948 90.8491 115.74 90.8491 115.486C90.8491 115.232 91.0491 114.948 91.2934 114.854C91.5378 114.76 91.8243 114.221 91.9302 113.657C92.0394 113.075 92.3039 112.63 92.5416 112.63C92.7721 112.63 92.9606 112.427 92.9606 112.178C92.9606 111.926 93.2287 111.725 93.5639 111.725L95.2832 109.689C95.0582 108.531 95.3689 107.201 95.8639 107.201C96.1369 107.201 96.2786 106.84 96.2786 106.145C96.2786 105.29 96.3935 105.089 96.8819 105.089C97.3703 105.089 97.4852 104.888 97.4852 104.033C97.4852 103.334 97.6264 102.978 97.9042 102.978C98.144 102.978 98.4076 102.527 98.521 101.922C98.6396 101.29 98.8954 100.866 99.1578 100.866C99.4582 100.866 99.5967 100.533 99.5967 99.8105C99.5967 99.1128 99.7381 98.7548 100.014 98.7548C100.243 98.7548 100.502 98.4833 100.589 98.1515C100.676 97.8197 100.963 97.5482 101.227 97.5482C101.576 97.5482 101.708 97.2574 101.708 96.4925C101.708 95.7553 101.844 95.4367 102.161 95.4367C102.409 95.4367 102.613 95.2331 102.613 94.9843C102.613 94.7354 102.869 94.5318 103.181 94.5318C103.496 94.5318 103.82 94.2625 103.907 93.9285C103.933 93.8298 103.963 93.7469 104.008 93.6774C104.013 93.6696 104.018 93.662 104.023 93.6546L105.931 89.14C105.931 88.2523 106.057 87.8957 106.37 87.8957C106.632 87.8957 106.888 87.4719 107.007 86.84C107.116 86.2593 107.383 85.7843 107.6 85.7843C107.817 85.7843 108.081 85.3885 108.188 84.9047C108.294 84.4205 108.576 83.95 108.815 83.8583C109.054 83.7666 109.249 83.4161 109.249 83.0788C109.249 82.7419 109.447 82.4662 109.688 82.4662C109.95 82.4662 110.206 82.0424 110.325 81.4105C110.438 80.8057 110.702 80.3547 110.942 80.3547C111.206 80.3547 111.361 80.0208 111.361 79.4498C111.361 78.883 111.516 78.5449 111.775 78.5449C112.356 78.5449 112.568 77.1736 112.563 73.4547C112.558 69.8731 112.39 68.8924 111.778 68.8924C111.492 68.8924 111.361 68.5121 111.361 67.6859C111.361 66.6805 111.26 66.4793 110.757 66.4793C110.422 66.4793 110.154 66.2781 110.154 66.0268C110.154 65.778 109.95 65.5744 109.702 65.5744C109.45 65.5744 109.249 65.3062 109.249 64.9711C109.249 64.4827 109.048 64.3678 108.193 64.3678C107.46 64.3678 107.138 64.2309 107.138 63.919C107.138 63.6285 106.712 63.402 105.931 63.2771C105.203 63.1607 104.725 62.92 104.725 62.6702C104.725 62.3456 104.04 62.2564 101.557 62.2564C98.943 62.2564 98.3901 62.3354 98.3901 62.7088C98.3901 63.0249 98.0716 63.1613 97.3344 63.1613C96.4798 63.1613 96.2786 63.2762 96.2786 63.7645C96.2786 64.2529 96.0774 64.3678 95.2229 64.3678C94.3683 64.3678 94.1671 64.4827 94.1671 64.9711C94.1671 65.3062 93.966 65.5744 93.7147 65.5744C93.4658 65.5744 93.2622 65.7907 93.2622 66.0552C93.2622 66.3194 92.9908 66.6069 92.659 66.6935C92.2315 66.8054 92.0557 67.1049 92.0557 67.7212C92.0557 68.2578 91.897 68.5908 91.6409 68.5908C91.2274 68.5908 90.8491 69.8335 90.8491 71.1924C90.8491 71.628 90.6717 71.9088 90.3967 71.9088C90.0817 71.9088 89.9442 72.2255 89.9442 72.9495C89.9442 73.5917 89.7587 74.0942 89.4598 74.2613C89.1684 74.4245 88.9126 75.0914 88.8173 75.9354C88.7147 76.8452 88.5138 77.3383 88.246 77.3383C87.951 77.3383 87.8327 77.7721 87.8327 78.8559C87.8327 79.9267 87.6994 80.4247 87.3802 80.5472C87.1314 80.6428 86.9278 80.9101 86.9278 81.1411C86.9278 81.3722 86.6714 81.5613 86.358 81.5613L85.4196 85.9351ZM105.78 66.6102C105.175 66.4968 104.725 66.2332 104.725 65.9934C104.725 65.6625 104.059 65.5744 101.557 65.5744C99.0217 65.5744 98.3901 65.6597 98.3901 66.003C98.3901 66.2386 97.9944 66.5182 97.5105 66.6247C97.0264 66.7309 96.5558 67.0132 96.4641 67.2518C96.3724 67.4904 96.1067 67.6859 95.8732 67.6859C95.6401 67.6859 95.3677 68.0931 95.2681 68.5908C95.1619 69.1217 94.8968 69.4957 94.6271 69.4957C94.3376 69.4957 94.1671 69.775 94.1671 70.2498C94.1671 70.7192 93.9961 71.0039 93.7147 71.0039C93.4396 71.0039 93.2622 71.2847 93.2622 71.7203C93.2622 73.0792 92.884 74.3219 92.4704 74.3219C92.1739 74.3219 92.0557 74.7515 92.0557 75.8301C92.0557 76.9212 91.9389 77.3383 91.6337 77.3383C91.3329 77.3383 91.1514 77.9431 90.9999 79.4498C90.8485 80.9565 90.6669 81.5613 90.3662 81.5613C90.0844 81.5613 89.9442 81.9151 89.9442 82.6264C89.9442 83.2535 89.7732 83.7572 89.5282 83.8513C89.2954 83.9406 89.0251 84.667 88.9144 85.501C88.7895 86.4439 88.569 86.9908 88.3141 86.9908C88.0583 86.9908 87.8535 87.5036 87.7531 88.3937C87.6578 89.2377 87.402 89.9047 87.1106 90.0678C86.7676 90.2597 86.6262 90.7746 86.6262 91.8321C86.6262 92.9582 86.5148 93.3252 86.1737 93.3252C85.8651 93.3252 85.72 93.6371 85.717 94.3056C85.711 95.7384 85.4072 96.6433 84.9318 96.6433C84.6272 96.6433 84.5147 97.0909 84.5147 98.3023C84.5147 99.5068 84.4013 99.9613 84.1011 99.9613C83.8327 99.9613 83.6173 100.49 83.4873 101.47C83.3503 102.502 83.1479 102.978 82.8454 102.978C82.5106 102.978 82.4032 103.38 82.4032 104.637C82.4032 105.848 82.2907 106.296 81.986 106.296C81.5287 106.296 81.2072 107.191 81.2009 108.483C81.1981 109.017 81.0356 109.312 80.7442 109.312C80.3822 109.312 80.2917 109.765 80.2917 111.574C80.2917 113.384 80.3822 113.837 80.7442 113.837C80.993 113.837 81.1966 114.04 81.1966 114.289C81.1966 114.538 81.4129 114.742 81.6774 114.742C81.9417 114.742 82.2291 115.013 82.3157 115.345C82.4542 115.875 82.7272 115.948 84.55 115.948C86.1945 115.948 86.6262 115.854 86.6262 115.496C86.6262 115.247 86.8424 115.043 87.107 115.043C87.3712 115.043 87.6587 114.772 87.7452 114.44C87.8321 114.108 88.0758 113.837 88.2867 113.837C88.4978 113.837 88.7596 113.362 88.8685 112.781C88.9871 112.149 89.2429 111.725 89.5053 111.725C89.7466 111.725 89.9442 111.454 89.9442 111.122C89.9442 110.787 90.1454 110.519 90.3967 110.519C90.7128 110.519 90.8491 110.2 90.8491 109.463C90.8491 108.608 90.964 108.407 91.4524 108.407C91.9407 108.407 92.0557 108.206 92.0557 107.352C92.0557 106.652 92.1968 106.296 92.4746 106.296C92.7145 106.296 92.9781 105.845 93.0915 105.24C93.21 104.608 93.4658 104.184 93.7283 104.184C93.9696 104.184 94.1671 103.913 94.1671 103.581C94.1671 103.249 94.3557 102.978 94.5861 102.978C94.8259 102.978 95.0896 102.527 95.203 101.922C95.3215 101.29 95.5773 100.866 95.8397 100.866C96.1402 100.866 96.2786 100.533 96.2786 99.8105C96.2786 98.956 96.3935 98.7548 96.8819 98.7548C97.3703 98.7548 97.4852 98.5536 97.4852 97.699C97.4852 96.9618 97.6215 96.6433 97.9376 96.6433C98.1889 96.6433 98.3901 96.3751 98.3901 96.04C98.3901 95.6379 98.5913 95.4367 98.9934 95.4367C99.4817 95.4367 99.5967 95.2355 99.5967 94.381C99.5967 93.6812 99.7378 93.3252 100.016 93.3252C100.255 93.3252 100.519 92.8743 100.632 92.2695C100.751 91.6376 101.007 91.2138 101.269 91.2138C101.57 91.2138 101.708 90.8808 101.708 90.158C101.708 89.4603 101.85 89.1023 102.125 89.1023C102.355 89.1023 102.614 88.8308 102.701 88.499C102.787 88.1672 103.075 87.8957 103.339 87.8957C103.687 87.8957 103.82 87.605 103.82 86.84C103.82 86.1173 103.958 85.7843 104.259 85.7843C104.521 85.7843 104.777 85.3605 104.895 84.7285C105.004 84.1479 105.267 83.6728 105.479 83.6728C105.691 83.6728 105.953 83.1977 106.062 82.617C106.181 81.9851 106.436 81.5613 106.699 81.5613C106.999 81.5613 107.138 81.2283 107.138 80.5056C107.138 79.7684 107.274 79.4498 107.59 79.4498C107.841 79.4498 108.043 79.1817 108.043 78.8465C108.043 78.5147 108.23 78.2433 108.46 78.2433C108.979 78.2433 109.24 77.3151 109.245 75.4531C109.248 74.3826 109.363 74.0203 109.702 74.0203C109.95 74.0203 110.154 73.8167 110.154 73.5678C110.154 73.319 109.95 73.1154 109.702 73.1154C109.355 73.1154 109.249 72.7338 109.249 71.4917C109.249 70.1213 109.155 69.8432 108.646 69.7099C108.207 69.5949 108.043 69.2984 108.043 68.6191C108.043 67.8871 107.913 67.6859 107.439 67.6859C107.107 67.6859 106.836 67.4883 106.836 67.247C106.836 66.9846 106.412 66.7288 105.78 66.6102Z" fill="white"/>
<path fill-rule="evenodd" clip-rule="evenodd" d="M13.6293 86.3875C13.6293 86.7227 13.4281 86.9908 13.1769 86.9908C12.9018 86.9908 12.7244 87.2716 12.7244 87.7072C12.7244 89.0661 12.3461 90.3089 11.9326 90.3089C11.6231 90.3089 11.5178 90.8072 11.5178 92.2695C11.5178 93.7319 11.4126 94.2302 11.1031 94.2302C10.6895 94.2302 10.3113 95.4729 10.3113 96.8318C10.3113 97.2674 10.1339 97.5482 9.85882 97.5482C9.54391 97.5482 9.40636 97.8649 9.40636 98.5889C9.40636 99.2311 9.22085 99.7336 8.92192 99.9007C8.63054 100.064 8.37475 100.731 8.27943 101.575C8.18562 102.407 7.96874 102.978 7.74643 102.978C7.51598 102.978 7.31449 103.571 7.22369 104.518C7.14225 105.365 6.90275 106.165 6.6916 106.296C6.48045 106.426 6.24095 107.226 6.15951 108.073C6.06027 109.106 5.87506 109.614 5.59755 109.614C5.28897 109.614 5.1834 110.114 5.1834 111.574C5.1834 113.116 5.28023 113.535 5.63586 113.535C5.95409 113.535 6.08832 113.857 6.08832 114.619C6.08832 115.449 6.22949 115.74 6.6916 115.861C7.02551 115.948 7.29488 116.272 7.29488 116.587C7.29488 116.899 7.49849 117.155 7.74734 117.155C7.99619 117.155 8.1998 117.358 8.1998 117.607C8.1998 117.934 8.53492 118.06 9.40636 118.06C10.2778 118.06 10.6129 118.186 10.6129 118.512C10.6129 118.866 11.0253 118.966 12.4982 118.969C14.7556 118.974 15.7408 119.202 15.7408 119.72L17.8565 117.683C17.8658 116.805 18.2538 115.948 18.6417 115.948C18.9174 115.948 19.0588 115.59 19.0588 114.893C19.0588 114.128 19.1913 113.837 19.5396 113.837C19.8039 113.837 20.0913 113.565 20.1779 113.233C20.2648 112.902 20.5236 112.63 20.7531 112.63C20.9824 112.63 21.1703 112.427 21.1703 112.178C21.1703 111.929 21.3739 111.725 21.6228 111.725L23.2818 108.86C23.2818 107.609 23.3898 107.201 23.7207 107.201C23.9831 107.201 24.2389 106.777 24.3574 106.145C24.4709 105.54 24.7345 105.089 24.9743 105.089C25.2415 105.089 25.3933 104.751 25.3933 104.156C25.3933 103.477 25.5574 103.18 25.9965 103.065C26.4499 102.947 26.5998 102.654 26.5998 101.887C26.5998 101.195 26.741 100.866 27.0387 100.866C27.3011 100.866 27.5569 100.442 27.6755 99.8105C27.7889 99.2057 28.0525 98.7548 28.2923 98.7548C28.5228 98.7548 28.7113 98.4833 28.7113 98.1515C28.7113 97.8197 28.9089 97.5482 29.1502 97.5482C29.4126 97.5482 29.6684 97.1244 29.787 96.4925C29.8958 95.9118 30.1577 95.4367 30.3688 95.4367C30.5797 95.4367 30.8234 95.1653 30.9103 94.8335C30.9592 94.6465 31.023 94.5169 31.1805 94.4271L34.0805 90.0675C33.7137 89.7008 34.1514 87.8957 34.6072 87.8957C34.8219 87.8957 35.0847 87.5 35.1911 87.0162C35.2973 86.532 35.5796 86.0615 35.8182 85.9698C36.0825 85.8684 36.2523 85.3864 36.2523 84.7379C36.2523 83.874 36.3663 83.6728 36.8556 83.6728C37.2577 83.6728 37.4589 83.4716 37.4589 83.0695C37.4589 82.7344 37.6601 82.4662 37.9113 82.4662C38.2274 82.4662 38.3638 82.1477 38.3638 81.4105C38.3638 80.6877 38.5022 80.3547 38.8027 80.3547C39.0651 80.3547 39.3209 79.9309 39.4394 79.299C39.5483 78.7183 39.8101 78.2433 40.0213 78.2433C40.5709 78.2433 40.8677 74.9041 40.6104 71.6144C40.4538 69.6133 40.2879 68.8924 39.9839 68.8924C39.7565 68.8924 39.5703 68.6083 39.5703 68.2608C39.5703 67.8831 39.3281 67.5661 38.9671 67.4717C38.5396 67.3598 38.3638 67.0603 38.3638 66.444C38.3638 65.8643 38.2099 65.5744 37.902 65.5744C37.6477 65.5744 37.3632 65.3744 37.2694 65.1301C37.1756 64.8857 36.6369 64.5992 36.0722 64.4933C35.5079 64.3874 35.0457 64.1184 35.0457 63.8955C35.0457 63.671 34.5743 63.4017 33.99 63.2922C33.3852 63.1788 32.9343 62.9151 32.9343 62.6753C32.9343 62.3444 32.2685 62.2564 29.767 62.2564C27.1527 62.2564 26.5998 62.3354 26.5998 62.7088C26.5998 63.0249 26.2813 63.1613 25.5441 63.1613C24.6895 63.1613 24.4883 63.2762 24.4883 63.7645C24.4883 64.2529 24.2872 64.3678 23.4326 64.3678C22.6677 64.3678 22.3769 64.5002 22.3769 64.8486C22.3769 65.1129 22.1054 65.4003 21.7736 65.4869C21.4418 65.5738 21.1703 65.8326 21.1703 66.0621C21.1703 66.2914 20.9818 66.4793 20.7513 66.4793C20.5115 66.4793 20.2479 66.9303 20.1345 67.535C20.0159 68.167 19.7601 68.5908 19.4977 68.5908C19.1668 68.5908 19.0588 68.9992 19.0588 70.2498C19.0588 71.7076 18.9858 71.9088 18.4556 71.9088C17.9328 71.9088 17.8523 72.11 17.8523 73.417C17.8523 74.4945 17.734 74.9252 17.4381 74.9252C17.1603 74.9252 16.9751 75.4344 16.8753 76.4741C16.779 77.4759 16.5522 78.1208 16.2337 78.2991C15.926 78.4713 15.7408 78.9663 15.7408 79.6157C15.7408 80.3397 15.6032 80.6564 15.2883 80.6564C15.0395 80.6564 14.8359 80.86 14.8359 81.1088C14.8359 81.3601 14.5677 81.5613 14.2326 81.5613L13.6293 86.3875ZM33.5375 66.4793C33.2024 66.4793 32.9343 66.2781 32.9343 66.0268C32.9343 65.6534 32.3814 65.5744 29.767 65.5744C27.2655 65.5744 26.5998 65.6625 26.5998 65.9934C26.5998 66.2332 26.1489 66.4968 25.5441 66.6102C24.9122 66.7288 24.4883 66.9846 24.4883 67.247C24.4883 67.4883 24.2169 67.6859 23.8851 67.6859C23.4157 67.6859 23.2818 67.8871 23.2818 68.5908C23.2818 69.1567 23.1267 69.4957 22.8679 69.4957C22.6182 69.4957 22.3775 69.9744 22.261 70.7023C22.1362 71.4829 21.9096 71.9088 21.6192 71.9088C21.3073 71.9088 21.1703 72.231 21.1703 72.9646C21.1703 73.7018 21.034 74.0203 20.7179 74.0203C20.4428 74.0203 20.2654 74.3011 20.2654 74.7367C20.2654 76.0956 19.8871 77.3383 19.4736 77.3383C19.1719 77.3383 19.0588 77.7908 19.0588 78.9974C19.0588 80.2087 18.9463 80.6564 18.6417 80.6564C18.1844 80.6564 17.8628 81.5517 17.8565 82.8433C17.8538 83.3778 17.6912 83.6728 17.3998 83.6728C17.0523 83.6728 16.9474 84.0583 16.9474 85.3318C16.9474 86.5432 16.8348 86.9908 16.5302 86.9908C16.0548 86.9908 15.751 87.8957 15.745 89.3285C15.742 89.997 15.5969 90.3089 15.2883 90.3089C14.997 90.3089 14.8344 90.6039 14.8317 91.1384C14.8253 92.43 14.5038 93.3252 14.0465 93.3252C13.747 93.3252 13.6293 93.7506 13.6293 94.8335C13.6293 95.973 13.5186 96.3417 13.1769 96.3417C12.8683 96.3417 12.7232 96.6535 12.7202 97.322C12.7141 98.7548 12.4104 99.6597 11.935 99.6597C11.6494 99.6597 11.5178 100.04 11.5178 100.866C11.5178 101.699 11.3869 102.073 11.0958 102.073C10.7951 102.073 10.6135 102.678 10.4621 104.184C10.3221 105.577 10.1197 106.296 9.86757 106.296C9.63621 106.296 9.42265 106.847 9.32763 107.691C9.24106 108.458 9.03685 109.17 8.87396 109.274C8.02696 109.813 8.12107 113.837 8.98044 113.837C9.21482 113.837 9.40636 114.108 9.40636 114.44C9.40636 114.772 9.59549 115.043 9.82654 115.043C10.0576 115.043 10.3249 115.247 10.4205 115.496C10.552 115.839 11.1079 115.948 12.715 115.948C14.3991 115.948 14.8359 115.855 14.8359 115.496C14.8359 115.247 15.0395 115.043 15.2883 115.043C15.5396 115.043 15.7408 114.775 15.7408 114.44C15.7408 114.038 15.942 113.837 16.3441 113.837C16.7462 113.837 16.9474 113.636 16.9474 113.233C16.9474 112.898 17.1485 112.63 17.3998 112.63C17.7159 112.63 17.8523 112.312 17.8523 111.574C17.8523 110.72 17.9672 110.519 18.4556 110.519C18.9439 110.519 19.0588 110.318 19.0588 109.463C19.0588 108.763 19.2 108.407 19.4778 108.407C19.7176 108.407 19.9812 107.956 20.0947 107.352C20.2132 106.72 20.469 106.296 20.7314 106.296C21.0291 106.296 21.1703 105.967 21.1703 105.275C21.1703 104.508 21.3202 104.215 21.7736 104.097C22.1054 104.01 22.3769 103.723 22.3769 103.459C22.3769 103.194 22.5805 102.978 22.8293 102.978C23.1454 102.978 23.2818 102.659 23.2818 101.922C23.2818 101.199 23.4202 100.866 23.7207 100.866C23.9831 100.866 24.2389 100.442 24.3574 99.8105C24.4709 99.2057 24.7345 98.7548 24.9743 98.7548C25.2521 98.7548 25.3933 98.3988 25.3933 97.699C25.3933 96.8445 25.5082 96.6433 25.9965 96.6433C26.4849 96.6433 26.5998 96.4421 26.5998 95.5875C26.5998 94.8503 26.7362 94.5318 27.0523 94.5318C27.3036 94.5318 27.5047 94.2637 27.5047 93.9285C27.5047 93.5265 27.7059 93.3252 28.108 93.3252C28.5964 93.3252 28.7113 93.1241 28.7113 92.2695C28.7113 91.5697 28.8525 91.2138 29.1303 91.2138C29.3701 91.2138 29.6337 90.7628 29.7471 90.158C29.8657 89.5261 30.1215 89.1023 30.3839 89.1023C30.6252 89.1023 30.8228 88.8308 30.8228 88.499C30.8228 88.1672 31.0204 87.8957 31.2617 87.8957C31.5241 87.8957 31.7799 87.4719 31.8984 86.84C32.0118 86.2352 32.2755 85.7843 32.5153 85.7843C32.7931 85.7843 32.9343 85.4283 32.9343 84.7285C32.9343 84.0058 33.0727 83.6728 33.3732 83.6728C33.6356 83.6728 33.8914 83.249 34.0099 82.617C34.1188 82.0364 34.3812 81.5613 34.5933 81.5613C34.8053 81.5613 35.0678 81.0862 35.1767 80.5056C35.2952 79.8736 35.551 79.4498 35.8134 79.4498C36.0547 79.4498 36.2523 79.1783 36.2523 78.8465C36.2523 78.5147 36.4384 78.2433 36.6659 78.2433C36.9343 78.2433 37.1497 77.7142 37.2797 76.7351C37.4166 75.7022 37.619 75.2269 37.9216 75.2269C38.2564 75.2269 38.3638 74.8242 38.3638 73.5678C38.3638 72.3172 38.2558 71.9088 37.9249 71.9088C37.6625 71.9088 37.4067 71.485 37.2881 70.8531C37.1792 70.2724 36.9168 69.7973 36.7048 69.7973C36.4927 69.7973 36.2321 69.3322 36.1256 68.7633C35.9688 67.9284 35.7594 67.6919 35.0361 67.5329C34.5438 67.4246 34.1408 67.1435 34.1408 66.9079C34.1408 66.6721 33.8693 66.4793 33.5375 66.4793Z" fill="white"/>
<path fill-rule="evenodd" clip-rule="evenodd" d="M85.7212 0.574021C85.7212 0.184001 87.5024 0.113418 99.2196 0.0380081C106.644 -0.00965099 112.989 -0.0129696 113.321 0.0307681C113.653 0.0745059 116.062 0.112211 118.675 0.114322C122.695 0.117942 123.426 0.188224 123.426 0.571005C123.426 0.912763 123.795 1.02346 124.934 1.02346C126.053 1.02346 126.443 1.13688 126.443 1.46235C126.443 1.72478 126.866 1.98057 127.498 2.09911C128.079 2.208 128.554 2.47043 128.554 2.68248C128.554 2.89454 129.029 3.15696 129.61 3.26585C130.242 3.3844 130.666 3.64019 130.666 3.90262C130.666 4.14393 130.869 4.3415 131.118 4.3415C131.367 4.3415 131.57 4.55778 131.57 4.82232C131.57 5.08655 131.842 5.37402 132.174 5.46059C132.601 5.57249 132.777 5.87202 132.777 6.48827C132.777 7.15671 132.916 7.3579 133.38 7.3579C133.782 7.3579 133.984 7.5591 133.984 7.96118C133.984 8.29298 134.169 8.56446 134.397 8.56446C134.665 8.56446 134.866 9.05764 134.968 9.96739C135.063 10.8114 135.319 11.4783 135.611 11.6415C136.024 11.8725 136.095 12.6197 136.095 16.7238C136.095 20.7993 136.164 21.535 136.548 21.535C136.796 21.535 137 21.7386 137 21.9874C137 22.2363 136.796 22.4399 136.548 22.4399C136.155 22.4399 136.095 23.7303 136.095 32.2432C136.095 40.7561 136.036 42.0465 135.643 42.0465C135.394 42.0465 135.19 42.2501 135.19 42.4989C135.19 42.7502 134.922 42.9514 134.587 42.9514C134.255 42.9514 133.984 43.1411 133.984 43.3728C133.984 43.7194 132.655 43.8147 126.518 43.9085C118.383 44.0325 117.695 43.9906 117.695 43.3686C117.695 43.1034 117.355 42.9514 116.762 42.9514C116.082 42.9514 115.786 42.7873 115.671 42.3481C115.584 42.0163 115.325 41.7448 115.096 41.7448C114.832 41.7448 114.679 41.4079 114.679 40.8306C114.679 40.3033 114.49 39.8439 114.234 39.7456C113.99 39.6518 113.703 39.113 113.598 38.5484C113.492 37.984 113.223 37.5219 113 37.5219C112.775 37.5219 112.506 37.0504 112.396 36.4661C112.283 35.8614 112.019 35.4104 111.78 35.4104C111.505 35.4104 111.361 35.0596 111.361 34.39C111.361 33.6229 111.211 33.33 110.757 33.2115C110.318 33.0965 110.154 32.8 110.154 32.1207C110.154 31.4921 110.006 31.1874 109.702 31.1874C109.45 31.1874 109.249 30.9193 109.249 30.5842C109.249 30.249 109.048 29.9809 108.797 29.9809C108.548 29.9809 108.344 29.7773 108.344 29.5284C108.344 29.2018 108.009 29.076 107.138 29.076C106.022 29.076 105.931 29.1381 105.935 29.9055C105.942 31.1971 106.263 32.0924 106.72 32.0924C106.95 32.0924 107.138 32.3638 107.138 32.6956C107.138 33.0275 107.326 33.2989 107.557 33.2989C107.796 33.2989 108.06 33.7499 108.173 34.3547C108.292 34.9866 108.548 35.4104 108.81 35.4104C109.111 35.4104 109.249 35.7434 109.249 36.4661C109.249 37.166 109.39 37.5219 109.668 37.5219C109.908 37.5219 110.172 37.9728 110.285 38.5776C110.404 39.2096 110.659 39.6334 110.922 39.6334C111.163 39.6334 111.361 39.9048 111.361 40.2366C111.361 40.5684 111.56 40.8399 111.803 40.8399C112.105 40.8399 112.308 41.3153 112.445 42.3481C112.575 43.3272 112.79 43.8563 113.059 43.8563C113.286 43.8563 113.472 44.1278 113.472 44.4596C113.472 44.7914 113.67 45.0629 113.911 45.0629C114.173 45.0629 114.429 45.4867 114.548 46.1186C114.657 46.6993 114.919 47.1744 115.131 47.1744C115.343 47.1744 115.606 47.6494 115.714 48.2301C115.833 48.862 116.089 49.2858 116.351 49.2858C116.593 49.2858 116.79 49.5573 116.79 49.8891C116.79 50.2242 116.991 50.4924 117.243 50.4924C117.559 50.4924 117.695 50.8109 117.695 51.5481C117.695 52.4027 117.81 52.6039 118.298 52.6039C118.633 52.6039 118.902 52.8051 118.902 53.0563C118.902 53.4439 119.8 53.5094 125.161 53.513C131.683 53.5172 132.777 53.6252 132.777 54.2644C132.777 54.4756 133.242 54.7356 133.811 54.842C134.646 54.9989 134.882 55.2082 135.041 55.9316C135.15 56.4238 135.431 56.8268 135.666 56.8268C136.01 56.8268 136.095 57.4585 136.095 59.9941C136.095 62.5206 136.009 63.1613 135.669 63.1613C135.407 63.1613 135.165 63.6261 135.039 64.3678C134.914 65.1096 134.671 65.5744 134.41 65.5744C134.147 65.5744 133.982 65.8926 133.979 66.4039C133.973 67.6955 133.652 68.5908 133.194 68.5908C132.909 68.5908 132.777 68.9712 132.777 69.7973C132.777 70.6688 132.651 71.0039 132.325 71.0039C132.02 71.0039 131.872 71.3086 131.872 71.9372C131.872 72.6165 131.708 72.913 131.269 73.0279C130.815 73.1465 130.666 73.4393 130.666 74.2064C130.666 74.8697 130.521 75.2269 130.252 75.2269C129.984 75.2269 129.768 75.7559 129.638 76.7351C129.501 77.7679 129.299 78.2433 128.996 78.2433C128.753 78.2433 128.554 78.5147 128.554 78.8465C128.554 79.1783 128.366 79.4498 128.137 79.4498C127.907 79.4498 127.649 79.7213 127.562 80.0531C127.475 80.3849 127.188 80.6564 126.923 80.6564C126.659 80.6564 126.443 80.86 126.443 81.1088C126.443 81.4774 125.94 81.5613 123.728 81.5613C121.516 81.5613 121.013 81.6451 121.013 82.0138C121.013 82.2626 120.797 82.4662 120.532 82.4662C120.268 82.4662 119.981 82.7377 119.894 83.0695C119.807 83.4013 119.548 83.6728 119.319 83.6728C119.09 83.6728 118.902 83.9443 118.902 84.2761C118.902 84.6079 118.709 84.8793 118.473 84.8793C118.237 84.8793 117.955 85.2866 117.846 85.7843C117.732 86.3037 117.453 86.6892 117.19 86.6892C116.939 86.6892 116.663 86.9607 116.576 87.2925C116.489 87.6243 116.23 87.8957 116.001 87.8957C115.771 87.8957 115.584 88.1672 115.584 88.499C115.584 88.9011 115.382 89.1023 114.98 89.1023C114.648 89.1023 114.377 89.295 114.377 89.5309C114.377 89.7665 113.97 90.0488 113.472 90.158C112.974 90.2672 112.567 90.5496 112.567 90.7851C112.567 91.0711 112.227 91.2138 111.547 91.2138C110.78 91.2138 110.487 91.3637 110.368 91.8171C110.248 92.2792 109.957 92.4203 109.127 92.4203C108.364 92.4203 108.043 92.5546 108.043 92.8728C108.043 93.2293 107.621 93.3252 106.054 93.3252C104.68 93.3252 104.222 93.3734 104.023 93.6546L105.931 89.14C105.931 90.3728 105.94 90.3825 106.874 90.1957C107.392 90.092 108.139 90.0072 108.533 90.0072C108.968 90.0072 109.249 89.8298 109.249 89.5548C109.249 89.2386 109.568 89.1023 110.305 89.1023C111.159 89.1023 111.361 88.9874 111.361 88.499C111.361 88.1639 111.562 87.8957 111.813 87.8957C112.062 87.8957 112.266 87.6921 112.266 87.4433C112.266 87.192 112.534 86.9908 112.869 86.9908C113.271 86.9908 113.472 86.7896 113.472 86.3875C113.472 85.9855 113.673 85.7843 114.075 85.7843C114.41 85.7843 114.679 85.5831 114.679 85.3318C114.679 85.0829 114.867 84.8793 115.098 84.8793C115.337 84.8793 115.601 84.4284 115.714 83.8236C115.833 83.1917 116.089 82.7679 116.351 82.7679C116.593 82.7679 116.79 82.4964 116.79 82.1646C116.79 81.8295 116.991 81.5613 117.243 81.5613C117.558 81.5613 117.695 81.2446 117.695 80.5206C117.695 79.8428 117.879 79.3768 118.223 79.1844C118.692 78.9222 118.751 78.344 118.751 74.0306C118.751 70.6745 118.643 69.1054 118.401 68.9561C118.209 68.8375 117.957 68.2315 117.84 67.6098C117.716 66.9481 117.454 66.4793 117.209 66.4793C116.942 66.4793 116.79 66.1412 116.79 65.546C116.79 64.8667 116.626 64.5702 116.187 64.4553C115.853 64.3678 115.584 64.0439 115.584 63.7293C115.584 63.4171 115.391 63.1613 115.155 63.1613C114.919 63.1613 114.637 62.7541 114.528 62.2564C114.419 61.7586 114.136 61.3514 113.901 61.3514C113.665 61.3514 113.472 61.08 113.472 60.7481C113.472 60.2598 113.271 60.1449 112.416 60.1449C111.562 60.1449 111.361 60.0299 111.361 59.5416C111.361 59.1395 111.159 58.9383 110.757 58.9383C110.426 58.9383 110.154 58.7525 110.154 58.5251C110.154 58.2572 109.661 58.0563 108.751 57.9538C107.907 57.8584 107.24 57.6027 107.077 57.3113C106.844 56.8941 106.084 56.8302 101.618 56.8507C96.2367 56.8754 95.6865 56.9427 95.2832 57.6253C95.1505 57.8497 94.5738 58.0334 94.0013 58.0334C93.3033 58.0334 92.9606 58.1746 92.9606 58.462C92.9606 58.6976 92.5534 58.9799 92.0557 59.0891C91.558 59.1983 91.1507 59.4807 91.1507 59.7162C91.1507 59.9521 90.8793 60.1449 90.5475 60.1449C90.2069 60.1449 89.9442 60.3461 89.9442 60.6067C89.9442 60.861 89.7406 61.1469 89.4917 61.2422C89.2429 61.3379 89.0393 61.6051 89.0393 61.8362C89.0393 62.0672 88.7829 62.2564 88.4695 62.2564C88.0574 62.2564 87.8451 62.548 87.7018 63.3121C87.5833 63.944 87.3275 64.3678 87.065 64.3678C86.8237 64.3678 86.6262 64.6393 86.6262 64.9711C86.6262 65.3062 86.425 65.5744 86.1737 65.5744C85.8823 65.5744 85.7197 65.8694 85.717 66.4039C85.7107 67.6955 85.3891 68.5908 84.9318 68.5908C84.5922 68.5908 84.5147 69.5986 84.5147 74.0203C84.5147 78.5702 84.5859 79.4498 84.9536 79.4498C85.216 79.4498 85.4718 79.8736 85.5903 80.5056C85.7336 81.2696 85.946 81.5613 86.358 81.5613L85.4196 85.9351C85.4196 85.1979 85.2832 84.8793 84.9671 84.8793C84.7159 84.8793 84.5147 84.6112 84.5147 84.2761C84.5147 83.9443 84.3171 83.6728 84.0758 83.6728C83.8134 83.6728 83.5576 83.249 83.439 82.617C83.3256 82.0122 83.062 81.5613 82.8222 81.5613C82.5211 81.5613 82.4032 81.1411 82.4032 80.0682C82.4032 78.9808 82.2647 78.4975 81.8943 78.29C81.4524 78.043 81.3852 77.4177 81.3852 73.5678C81.3852 69.718 81.4524 69.0927 81.8943 68.8457C82.2183 68.6644 82.4032 68.183 82.4032 67.52C82.4032 66.796 82.5407 66.4793 82.8557 66.4793C83.1603 66.4793 83.3081 66.1747 83.3081 65.546C83.3081 64.8667 83.4722 64.5702 83.9114 64.4553C84.3648 64.3368 84.5147 64.0439 84.5147 63.2768C84.5147 62.5848 84.6558 62.2564 84.9536 62.2564C85.216 62.2564 85.4718 61.8325 85.5903 61.2006C85.7037 60.5958 85.9674 60.1449 86.2072 60.1449C86.4376 60.1449 86.6262 59.9286 86.6262 59.6641C86.6262 59.3998 86.8976 59.1124 87.2294 59.0258C87.5612 58.9389 87.8327 58.6889 87.8327 58.4699C87.8327 58.2409 88.2499 58.0313 88.813 57.977C89.6751 57.894 89.8048 57.7643 89.8878 56.9022L89.9825 55.9219H65.3795C43.7115 55.9219 40.7769 55.9759 40.7769 56.3744C40.7769 56.6232 40.9805 56.8268 41.2294 56.8268C41.4806 56.8268 41.6818 57.095 41.6818 57.4301C41.6818 57.8322 41.883 58.0334 42.2851 58.0334C42.6202 58.0334 42.8884 58.2346 42.8884 58.4859C42.8884 58.7347 43.092 58.9383 43.3408 58.9383C43.5897 58.9383 43.7933 59.1419 43.7933 59.3908C43.7933 59.6396 44.0096 59.8432 44.2741 59.8432C44.5383 59.8432 44.8258 60.1147 44.9124 60.4465C44.9993 60.7783 45.2581 61.0498 45.4876 61.0498C45.7169 61.0498 45.9048 61.3213 45.9048 61.6531C45.9048 61.9849 46.1024 62.2564 46.3437 62.2564C46.6061 62.2564 46.8619 62.6802 46.9804 63.3121C47.0938 63.9169 47.3575 64.3678 47.5973 64.3678C47.8751 64.3678 48.0163 64.7238 48.0163 65.4236C48.0163 66.1182 48.158 66.4793 48.431 66.4793C48.8446 66.4793 49.2228 67.7221 49.2228 69.0809C49.2228 69.5165 49.4002 69.7973 49.6753 69.7973C50.0532 69.7973 50.1277 70.4175 50.1277 73.5678C50.1277 76.7182 50.0532 77.3383 49.6753 77.3383C49.4002 77.3383 49.2228 77.6192 49.2228 78.0547C49.2228 79.4136 48.8446 80.6564 48.431 80.6564C48.1345 80.6564 48.0163 81.0859 48.0163 82.1646C48.0163 83.2475 47.8986 83.6728 47.5991 83.6728C47.3695 83.6728 47.1107 83.9443 47.0239 84.2761C46.9373 84.6079 46.6498 84.8793 46.3856 84.8793C46.106 84.8793 45.9048 85.1318 45.9048 85.4826C45.9048 85.8144 45.712 86.0859 45.4761 86.0859C45.2406 86.0859 44.9582 86.4931 44.849 86.9908C44.7398 87.4885 44.4575 87.8957 44.2219 87.8957C43.986 87.8957 43.7933 88.1672 43.7933 88.499C43.7933 88.9011 43.5921 89.1023 43.19 89.1023C42.8582 89.1023 42.5867 89.2999 42.5867 89.5412C42.5867 89.8036 42.1629 90.0594 41.531 90.1779C40.9295 90.2908 40.4753 90.5553 40.4753 90.7927C40.4753 91.1423 43.6732 91.2219 60.3081 91.2871L80.1409 91.3646L80.2353 92.3449C80.3143 93.1648 80.2281 93.3252 79.7074 93.3252C79.3554 93.3252 79.0852 93.5216 79.0852 93.7777C79.0852 94.0266 78.8816 94.2302 78.6327 94.2302C78.3838 94.2302 78.1802 94.0944 78.1802 93.9285C78.1802 93.7626 77.7052 93.6269 77.1245 93.6269C76.5438 93.6269 76.0688 93.7626 76.0688 93.9285C76.0688 94.0944 75.5258 94.2302 74.8622 94.2302C74.1986 94.2302 73.6556 94.0944 73.6556 93.9285C73.6556 93.7316 68.4774 93.6269 58.7245 93.6269C48.9715 93.6269 43.7933 93.7316 43.7933 93.9285C43.7933 94.1104 42.5364 94.2302 40.6261 94.2302C38.7158 94.2302 37.4589 94.1104 37.4589 93.9285C37.4589 93.7626 37.1874 93.6269 36.8556 93.6269C36.5238 93.6269 36.2523 93.7626 36.2523 93.9285C36.2523 94.1062 35.1872 94.2302 33.66 94.2302C32.1248 94.2302 31.4816 94.2556 31.1805 94.4271L34.0805 90.0675C34.4578 90.4449 36.2523 89.9903 36.2523 89.5171C36.2523 89.2441 36.6134 89.1023 37.308 89.1023C38.0308 89.1023 38.3638 88.9638 38.3638 88.6634C38.3638 88.401 38.7876 88.1452 39.4195 88.0266C40.0002 87.9177 40.4753 87.6559 40.4753 87.4448C40.4753 87.2339 40.7467 86.9902 41.0785 86.9033C41.4103 86.8168 41.6818 86.5293 41.6818 86.2651C41.6818 86.0005 41.8854 85.7843 42.1343 85.7843C42.3831 85.7843 42.5867 85.5963 42.5867 85.3671C42.5867 85.1375 42.8582 84.8787 43.19 84.7919C43.5218 84.7053 43.7933 84.4178 43.7933 84.1536C43.7933 83.889 43.9969 83.6728 44.2458 83.6728C44.5619 83.6728 44.6982 83.3542 44.6982 82.617C44.6982 81.7625 44.8131 81.5613 45.3015 81.5613C45.8318 81.5613 45.9048 81.3601 45.9048 79.9023C45.9048 78.7069 46.0191 78.2433 46.3138 78.2433C46.6064 78.2433 46.7786 77.5742 46.9189 75.895C47.1834 72.723 46.8519 68.8924 46.3129 68.8924C46.0544 68.8924 45.9033 68.5332 45.9006 67.9121C45.8945 66.4793 45.5908 65.5744 45.1154 65.5744C44.8861 65.5744 44.6982 65.3029 44.6982 64.9711C44.6982 64.6393 44.5097 64.3678 44.2792 64.3678C44.0394 64.3678 43.7758 63.9169 43.6624 63.3121C43.5438 62.6802 43.2881 62.2564 43.0256 62.2564C42.7843 62.2564 42.5867 62.0684 42.5867 61.8392C42.5867 61.6096 42.3153 61.3508 41.9835 61.264C41.6517 61.1774 41.3802 60.8899 41.3802 60.6257C41.3802 60.2927 41.1021 60.1449 40.4753 60.1449C39.8485 60.1449 39.5703 59.9971 39.5703 59.6641C39.5703 59.3998 39.2989 59.1124 38.9671 59.0258C38.6353 58.9389 38.3638 58.6801 38.3638 58.4506C38.3638 58.1749 38.0057 58.0334 37.308 58.0334C36.6134 58.0334 36.2523 57.8916 36.2523 57.6186C36.2523 57.1442 34.9676 56.8268 33.0474 56.8268C32.0755 56.8268 31.7277 56.7077 31.7277 56.3744C31.7277 56.1255 31.592 55.9219 31.4261 55.9219C31.2602 55.9219 31.1244 56.1255 31.1244 56.3744C31.1244 56.6558 30.8397 56.8268 30.3703 56.8268C29.901 56.8268 29.6162 56.6558 29.6162 56.3744C29.6162 56.1255 29.4126 55.9219 29.1638 55.9219C28.9149 55.9219 28.7113 56.1255 28.7113 56.3744C28.7113 56.7315 28.2821 56.8277 26.6752 56.8311C24.2326 56.8359 23.2818 57.0558 23.2818 57.6162C23.2818 57.8919 22.9237 58.0334 22.226 58.0334C21.5262 58.0334 21.1703 58.1746 21.1703 58.4524C21.1703 58.6922 20.7194 58.9558 20.1146 59.0692C19.4826 59.1878 19.0588 59.4436 19.0588 59.706C19.0588 59.9473 18.8552 60.1449 18.6064 60.1449C18.3575 60.1449 18.1539 60.3611 18.1539 60.6257C18.1539 60.8899 17.8824 61.1774 17.5506 61.264C17.2188 61.3508 16.9474 61.6096 16.9474 61.8392C16.9474 62.0684 16.6759 62.2564 16.3441 62.2564C15.8557 62.2564 15.7408 62.4575 15.7408 63.3121C15.7408 64.0493 15.6045 64.3678 15.2883 64.3678C15.0371 64.3678 14.8359 64.636 14.8359 64.9711C14.8359 65.3732 14.6347 65.5744 14.2326 65.5744C13.7442 65.5744 13.6293 65.7756 13.6293 66.6301C13.6293 67.3151 13.4863 67.6859 13.2221 67.6859C12.9174 67.6859 12.7648 68.5145 12.6152 70.9777C12.3573 75.222 12.6598 79.4498 13.2215 79.4498C13.4866 79.4498 13.6293 79.8193 13.6293 80.5056C13.6293 81.3601 13.7442 81.5613 14.2326 81.5613L13.6293 86.3875C13.6293 86.0557 13.4408 85.7843 13.2103 85.7843C12.9705 85.7843 12.7069 85.3333 12.5935 84.7285C12.4749 84.0966 12.2191 83.6728 11.9567 83.6728C11.6563 83.6728 11.5178 83.3398 11.5178 82.617C11.5178 81.9136 11.377 81.5613 11.0958 81.5613C10.7951 81.5613 10.6135 80.9565 10.4621 79.4498C10.3107 77.9431 10.1291 77.3383 9.82835 77.3383C9.48931 77.3383 9.40636 76.5966 9.40636 73.5678C9.40636 70.4175 9.48086 69.7973 9.85882 69.7973C10.1674 69.7973 10.3125 69.4855 10.3155 68.817C10.3215 67.3842 10.6253 66.4793 11.1007 66.4793C11.399 66.4793 11.5178 66.0594 11.5178 65.0064C11.5178 63.7869 11.6216 63.506 12.1211 63.3754C12.4529 63.2889 12.7244 63.0014 12.7244 62.7372C12.7244 62.4726 12.928 62.2564 13.1769 62.2564C13.5186 62.2564 13.6293 61.8877 13.6293 60.7481V59.24H12.5986C12.0318 59.24 11.5184 59.389 11.4578 59.5712C11.3969 59.7533 10.7094 59.9744 9.9297 60.0622C8.80851 60.1886 8.47338 60.1213 8.32679 59.7392C8.22483 59.4737 7.67947 59.1697 7.1148 59.0638C6.53264 58.9546 6.08832 58.6901 6.08832 58.4524C6.08832 58.2219 5.89979 58.0334 5.66934 58.0334C5.43165 58.0334 5.16711 57.5891 5.05792 57.0069C4.95204 56.4422 4.65704 55.9002 4.40246 55.8025C3.99946 55.648 3.9518 54.6095 4.03355 47.7686C4.10172 42.0863 4.2275 39.8505 4.48842 39.6898C4.71345 39.5507 4.92852 38.1387 5.06063 35.9304C5.20995 33.4307 5.38158 32.394 5.64611 32.394C5.89708 32.394 6.05996 31.6936 6.1405 30.2647C6.21682 28.9137 6.40987 28.0438 6.66837 27.8839C6.89219 27.7454 7.14225 26.9388 7.22369 26.0918C7.31479 25.1438 7.51598 24.5514 7.74674 24.5514C7.96935 24.5514 8.20342 23.9375 8.32226 23.0432C8.45921 22.0104 8.66161 21.535 8.96415 21.535C9.26851 21.535 9.40636 21.2056 9.40636 20.4792C9.40636 19.771 9.54662 19.4235 9.83227 19.4235C10.0941 19.4235 10.3369 18.9587 10.4621 18.2169C10.5873 17.4752 10.8301 17.0104 11.0919 17.0104C11.3776 17.0104 11.5178 16.6629 11.5178 15.9546C11.5178 15.2319 11.6563 14.8989 11.9567 14.8989C12.2191 14.8989 12.4749 14.4751 12.5935 13.8432C12.7069 13.2384 12.9705 12.7874 13.2103 12.7874C13.4408 12.7874 13.6293 12.5147 13.6293 12.1811C13.6293 11.8478 13.9008 11.3426 14.2326 11.0584C14.5644 10.7743 14.8359 10.3686 14.8359 10.1565C14.8359 9.94446 15.0395 9.77102 15.2883 9.77102C15.5396 9.77102 15.7408 9.50286 15.7408 9.16774C15.7408 8.76565 15.942 8.56446 16.3441 8.56446C16.8324 8.56446 16.9474 8.36327 16.9474 7.50872C16.9474 6.65418 17.0623 6.45298 17.5506 6.45298C17.8858 6.45298 18.1539 6.25179 18.1539 6.00052C18.1539 5.75167 18.3575 5.54806 18.6064 5.54806C18.8576 5.54806 19.0588 5.2799 19.0588 4.94478C19.0588 4.5427 19.26 4.3415 19.6621 4.3415C20.0642 4.3415 20.2654 4.14031 20.2654 3.73822C20.2654 3.4031 20.4666 3.13494 20.7179 3.13494C20.9667 3.13494 21.1703 2.93134 21.1703 2.68248C21.1703 2.32353 21.6059 2.23002 23.2818 2.23002C24.9577 2.23002 25.3933 2.32353 25.3933 2.68248C25.3933 2.93375 25.6614 3.13494 25.9965 3.13494C26.5461 3.13494 26.5998 3.33614 26.5998 5.39724C26.5998 7.15098 26.5036 7.65954 26.1712 7.65954C25.9356 7.65954 25.6533 8.06676 25.5441 8.56446C25.4349 9.06217 25.1526 9.46938 24.917 9.46938C24.6811 9.46938 24.4883 9.72517 24.4883 10.0374C24.4883 10.352 24.219 10.6759 23.8851 10.7634C23.4459 10.8783 23.2818 11.1749 23.2818 11.8541C23.2818 12.4493 23.1301 12.7874 22.8628 12.7874C22.623 12.7874 22.3594 13.2384 22.246 13.8432C22.1274 14.4751 21.8716 14.8989 21.6092 14.8989C21.3088 14.8989 21.1703 15.2319 21.1703 15.9546C21.1703 16.6544 21.0291 17.0104 20.7513 17.0104C20.5115 17.0104 20.2479 17.4613 20.1345 18.0661C20.0159 18.698 19.7601 19.1219 19.4977 19.1219C19.1867 19.1219 19.0588 19.4736 19.0588 20.3284C19.0588 21.1772 18.93 21.535 18.6248 21.535C18.308 21.535 18.134 22.1066 17.9823 23.6465C17.8462 25.0277 17.6435 25.7579 17.3959 25.7579C17.1437 25.7579 16.9757 26.4188 16.8916 27.7391C16.8107 29.0054 16.6116 29.8156 16.3399 29.9836C16.034 30.1727 15.8802 31.0985 15.7924 33.2808C15.6992 35.605 15.5728 36.3153 15.2533 36.3153C14.9089 36.3153 14.8359 37.6359 14.8359 43.8563C14.8359 50.3585 14.8983 51.3973 15.2883 51.3973C15.6503 51.3973 15.7408 51.8498 15.7408 53.6596C15.7408 55.4695 15.6503 55.9219 15.2883 55.9219C15.0395 55.9219 14.8359 56.1255 14.8359 56.3744C14.8359 56.6232 15.0395 56.8268 15.2883 56.8268C15.5396 56.8268 15.7408 57.095 15.7408 57.4301C15.7408 57.7619 15.9106 58.0316 16.1178 58.0292C16.9956 58.0198 17.8523 57.6319 17.8523 57.244C17.8523 57.0148 18.1237 56.8268 18.4556 56.8268C18.7874 56.8268 19.0588 56.6383 19.0588 56.4079C19.0588 56.168 19.5098 55.9044 20.1146 55.791C20.7465 55.6725 21.1703 55.4167 21.1703 55.1542C21.1703 54.8433 21.522 54.7154 22.3769 54.7154C23.1901 54.7154 23.5834 54.5823 23.5834 54.3072C23.5834 54.0165 24.2482 53.8427 25.8913 53.704C27.1606 53.5966 44.4672 53.5088 64.3504 53.5088C96.2838 53.5088 100.502 53.456 100.502 53.0563C100.502 52.8051 100.77 52.6039 101.105 52.6039C101.44 52.6039 101.708 52.8051 101.708 53.0563C101.708 53.3725 102.027 53.5088 102.764 53.5088C103.501 53.5088 103.82 53.3725 103.82 53.0563C103.82 52.8075 104.023 52.6039 104.272 52.6039C104.521 52.6039 104.725 52.4003 104.725 52.1514C104.725 51.9026 104.521 51.699 104.272 51.699C104.021 51.699 103.82 51.4308 103.82 51.0957C103.82 50.7639 103.631 50.4924 103.401 50.4924C103.161 50.4924 102.897 50.0414 102.784 49.4367C102.665 48.8047 102.409 48.3809 102.147 48.3809C101.847 48.3809 101.708 48.0479 101.708 47.3252C101.708 46.6169 101.568 46.2694 101.282 46.2694C101.02 46.2694 100.778 45.8046 100.652 45.0629C100.527 44.3211 100.284 43.8563 100.023 43.8563C99.7369 43.8563 99.5967 43.5088 99.5967 42.8006C99.5967 42.0779 99.4582 41.7448 99.1578 41.7448C98.8954 41.7448 98.6396 41.321 98.521 40.6891C98.4076 40.0843 98.144 39.6334 97.9042 39.6334C97.6369 39.6334 97.4852 39.2952 97.4852 38.7001C97.4852 38.0208 97.3211 37.7243 96.8819 37.6094C96.4285 37.4908 96.2786 37.1979 96.2786 36.4309C96.2786 35.7612 96.1347 35.4104 95.8596 35.4104C95.6198 35.4104 95.3562 34.9595 95.2428 34.3547C95.1243 33.7227 94.8685 33.2989 94.606 33.2989C94.3056 33.2989 94.1671 32.9659 94.1671 32.2432C94.1671 31.5205 94.0287 31.1874 93.7283 31.1874C93.4658 31.1874 93.21 30.7636 93.0915 30.1317L92.8933 29.076L89.9861 29.0717C86.6955 29.0672 85.7212 28.8877 85.7212 28.2866C85.7212 28.0573 85.4498 27.8694 85.118 27.8694C84.5877 27.8694 84.5147 27.6682 84.5147 26.2104C84.5147 24.9369 84.4097 24.5514 84.0622 24.5514C83.6713 24.5514 83.6098 23.4621 83.6098 16.5579C83.6098 9.65368 83.6713 8.56446 84.0622 8.56446C84.4402 8.56446 84.5147 7.94429 84.5147 4.79396C84.5147 1.22466 84.5469 1.02346 85.118 1.02346C85.4513 1.02346 85.7212 0.822271 85.7212 0.574021ZM21.6228 111.725L23.2818 108.86C23.2818 110.318 23.3548 110.519 23.8851 110.519C24.2169 110.519 24.4883 110.711 24.4883 110.947C24.4883 111.183 24.8956 111.465 25.3933 111.574C25.9127 111.688 26.2982 111.968 26.2982 112.23C26.2982 112.481 26.5697 112.758 26.9015 112.844C27.2333 112.931 27.5047 113.19 27.5047 113.42C27.5047 113.649 27.7762 113.837 28.108 113.837C28.4431 113.837 28.7113 114.038 28.7113 114.289C28.7113 114.538 28.9149 114.742 29.1638 114.742C29.4126 114.742 29.6162 114.958 29.6162 115.222C29.6162 115.487 29.8877 115.774 30.2195 115.861C30.5513 115.948 30.8228 116.19 30.8228 116.401C30.8228 116.611 31.0943 116.854 31.4261 116.941C31.7579 117.027 32.0293 117.315 32.0293 117.579C32.0293 117.843 32.233 118.06 32.4818 118.06C32.7307 118.06 32.9343 118.248 32.9343 118.477C32.9343 118.706 33.2057 118.965 33.5375 119.052C33.8693 119.139 34.1408 119.426 34.1408 119.69C34.1408 119.97 34.3933 120.171 34.7441 120.171C35.0759 120.171 35.3474 120.364 35.3474 120.6C35.3474 120.835 35.7546 121.118 36.2523 121.227C36.7717 121.341 37.1572 121.62 37.1572 121.882C37.1572 122.134 37.4287 122.41 37.7605 122.497C38.0923 122.584 38.3638 122.843 38.3638 123.072C38.3638 123.301 38.5674 123.489 38.8162 123.489C39.0651 123.489 39.2687 123.706 39.2687 123.97C39.2687 124.234 39.5402 124.522 39.872 124.608C40.2038 124.695 40.4753 124.954 40.4753 125.184C40.4753 125.413 40.7467 125.601 41.0785 125.601C41.4137 125.601 41.6818 125.802 41.6818 126.053C41.6818 126.302 41.8854 126.506 42.1343 126.506C42.3855 126.506 42.5867 126.774 42.5867 127.109C42.5867 127.511 42.7879 127.712 43.19 127.712C43.5218 127.712 43.7933 127.9 43.7933 128.129C43.7933 128.359 44.0648 128.618 44.3966 128.705C44.7284 128.791 44.9999 129.079 44.9999 129.343C44.9999 129.607 45.2035 129.824 45.4523 129.824C45.7012 129.824 45.9048 130.021 45.9048 130.263C45.9048 130.525 46.3286 130.781 46.9605 130.899L44.4628 132.27C44.3982 132.249 44.3242 132.237 44.2458 132.237C43.9945 132.237 43.7933 131.969 43.7933 131.634C43.7933 131.231 43.5921 131.03 43.19 131.03C42.8582 131.03 42.5867 130.833 42.5867 130.591C42.5867 130.329 42.1629 130.073 41.531 129.955C40.7669 129.811 40.4753 129.599 40.4753 129.187C40.4753 128.874 40.2717 128.617 40.0228 128.617C39.7739 128.617 39.5703 128.414 39.5703 128.165C39.5703 127.913 39.3022 127.712 38.9671 127.712C38.565 127.712 38.3638 127.511 38.3638 127.109C38.3638 126.774 38.1626 126.506 37.9113 126.506C37.6625 126.506 37.4589 126.302 37.4589 126.053C37.4589 125.802 37.1907 125.601 36.8556 125.601C36.4535 125.601 36.2523 125.4 36.2523 124.997C36.2523 124.595 36.0511 124.394 35.649 124.394C35.3139 124.394 35.0457 124.193 35.0457 123.942C35.0457 123.693 34.8421 123.489 34.5933 123.489C34.3444 123.489 34.1408 123.301 34.1408 123.072C34.1408 122.843 33.8693 122.584 33.5375 122.497C33.2057 122.41 32.9343 122.123 32.9343 121.859C32.9343 121.579 32.6818 121.378 32.331 121.378C31.9959 121.378 31.7277 121.177 31.7277 120.925C31.7277 120.676 31.5241 120.473 31.2752 120.473C31.0264 120.473 30.8228 120.216 30.8228 119.903C30.8228 119.491 30.5311 119.279 29.767 119.135C29.1351 119.017 28.7113 118.761 28.7113 118.499C28.7113 118.257 28.5234 118.06 28.2941 118.06C28.0646 118.06 27.8058 117.788 27.7189 117.456C27.6323 117.125 27.3449 116.853 27.0806 116.853C26.8161 116.853 26.5998 116.65 26.5998 116.401C26.5998 116.149 26.3317 115.948 25.9965 115.948C25.5945 115.948 25.3933 115.747 25.3933 115.345C25.3933 115.01 25.1921 114.742 24.9408 114.742C24.692 114.742 24.4883 114.538 24.4883 114.289C24.4883 114.038 24.2202 113.837 23.8851 113.837C23.5533 113.837 23.2818 113.649 23.2818 113.42C23.2818 113.19 23.0103 112.931 22.6785 112.844C22.3467 112.758 22.0752 112.47 22.0752 112.206C22.0752 111.942 21.8716 111.725 21.6228 111.725ZM15.7408 119.72L17.8565 117.683C17.8541 117.89 18.1237 118.06 18.4556 118.06C18.7874 118.06 19.0588 118.257 19.0588 118.499C19.0588 118.761 19.4826 119.017 20.1146 119.135C20.7194 119.249 21.1703 119.512 21.1703 119.752C21.1703 119.983 21.4418 120.171 21.7736 120.171C22.1757 120.171 22.3769 120.372 22.3769 120.774C22.3769 121.11 22.5781 121.378 22.8293 121.378C23.0782 121.378 23.2818 121.566 23.2818 121.797C23.2818 122.037 23.7327 122.3 24.3375 122.414C24.9695 122.532 25.3933 122.788 25.3933 123.05C25.3933 123.292 25.6647 123.489 25.9965 123.489C26.3317 123.489 26.5998 123.69 26.5998 123.942C26.5998 124.191 26.8161 124.394 27.0806 124.394C27.3449 124.394 27.6323 124.666 27.7189 124.997C27.8308 125.425 28.1304 125.601 28.7466 125.601C29.3185 125.601 29.6162 125.755 29.6162 126.053C29.6162 126.304 29.8844 126.506 30.2195 126.506C30.6216 126.506 30.8228 126.707 30.8228 127.109C30.8228 127.511 31.024 127.712 31.4261 127.712C31.7579 127.712 32.0293 127.91 32.0293 128.151C32.0293 128.413 32.4531 128.669 33.0851 128.788C33.6899 128.901 34.1408 129.165 34.1408 129.405C34.1408 129.635 34.3143 129.824 34.5263 129.824C34.7384 129.824 35.1441 130.095 35.4282 130.427C35.7124 130.759 36.2176 131.03 36.5509 131.03C36.8888 131.03 37.1572 131.231 37.1572 131.483C37.1572 131.734 37.4254 131.935 37.7605 131.935C38.1626 131.935 38.3638 132.136 38.3638 132.538C38.3638 132.941 38.565 133.142 38.9671 133.142C39.3022 133.142 39.5703 133.343 39.5703 133.594C39.5703 133.91 39.8889 134.047 40.6261 134.047C40.8982 134.047 41.1133 134.028 41.2764 133.989L38.3638 135.253H37.308C36.4535 135.253 36.2523 135.138 36.2523 134.65C36.2523 134.248 36.0511 134.047 35.649 134.047C35.3139 134.047 35.0457 133.845 35.0457 133.594C35.0457 133.345 34.8723 133.142 34.6602 133.142C34.4482 133.142 34.0425 132.87 33.7583 132.538C33.4742 132.207 32.969 131.935 32.6356 131.935C32.2978 131.935 32.0293 131.735 32.0293 131.483C32.0293 131.231 31.7612 131.03 31.4261 131.03C31.024 131.03 30.8228 130.829 30.8228 130.427C30.8228 129.939 30.6216 129.824 29.767 129.824C28.9125 129.824 28.7113 129.709 28.7113 129.22C28.7113 128.818 28.5101 128.617 28.108 128.617C27.7729 128.617 27.5047 128.416 27.5047 128.165C27.5047 127.916 27.3011 127.712 27.0523 127.712C26.8034 127.712 26.5998 127.509 26.5998 127.26C26.5998 127.008 26.3317 126.807 25.9965 126.807C25.5945 126.807 25.3933 126.606 25.3933 126.204C25.3933 125.716 25.1921 125.601 24.3375 125.601C23.483 125.601 23.2818 125.486 23.2818 124.997C23.2818 124.595 23.0806 124.394 22.6785 124.394C22.3434 124.394 22.0752 124.193 22.0752 123.942C22.0752 123.64 21.7736 123.489 21.1703 123.489C20.5435 123.489 20.2654 123.341 20.2654 123.008C20.2654 122.744 19.9939 122.457 19.6621 122.37C19.3303 122.283 19.0588 122.024 19.0588 121.795C19.0588 121.566 18.7874 121.378 18.4556 121.378C18.1237 121.378 17.8523 121.18 17.8523 120.939C17.8523 120.676 17.4285 120.421 16.7965 120.302C16.2159 120.193 15.7408 119.931 15.7408 119.72ZM87.8327 119.756C87.8327 119.984 88.1054 120.171 88.439 120.171C88.7723 120.171 89.2776 120.443 89.5617 120.774C89.8458 121.106 90.2516 121.378 90.4636 121.378C90.6757 121.378 90.8491 121.581 90.8491 121.83C90.8491 122.081 91.1173 122.283 91.4524 122.283C91.8545 122.283 92.0557 122.484 92.0557 122.886C92.0557 123.374 92.2569 123.489 93.1114 123.489C93.8091 123.489 94.1671 123.631 94.1671 123.906C94.1671 124.136 94.4386 124.395 94.7704 124.482C95.1022 124.568 95.3737 124.856 95.3737 125.12C95.3737 125.453 95.6518 125.601 96.2786 125.601C96.9054 125.601 97.1835 125.749 97.1835 126.082C97.1835 126.346 97.455 126.633 97.7868 126.72C98.1186 126.807 98.3901 127.065 98.3901 127.295C98.3901 127.524 98.6616 127.712 98.9934 127.712C99.3252 127.712 99.5967 127.9 99.5967 128.129C99.5967 128.359 99.8681 128.618 100.2 128.705C100.532 128.791 100.803 129.079 100.803 129.343C100.803 129.672 101.078 129.824 101.673 129.824C102.289 129.824 102.589 130 102.701 130.427C102.795 130.788 103.112 131.03 103.49 131.03C103.837 131.03 104.121 131.223 104.121 131.459C104.121 131.694 104.528 131.977 105.026 132.086C105.524 132.195 105.931 132.478 105.931 132.713C105.931 132.949 106.203 133.142 106.534 133.142C106.866 133.142 107.138 133.33 107.138 133.559C107.138 133.788 107.409 134.047 107.741 134.134C108.073 134.221 108.344 134.508 108.344 134.772C108.344 135.101 108.619 135.253 109.211 135.253C109.917 135.253 110.109 135.408 110.242 136.083L112.567 134.047C111.696 134.047 111.361 133.921 111.361 133.594C111.361 133.345 111.173 133.142 110.943 133.142C110.714 133.142 110.455 132.87 110.368 132.538C110.282 132.207 109.994 131.935 109.73 131.935C109.465 131.935 109.249 131.747 109.249 131.516C109.249 131.276 108.798 131.013 108.193 130.899C107.561 130.781 107.138 130.525 107.138 130.263C107.138 130.021 106.866 129.824 106.534 129.824C106.203 129.824 105.931 129.636 105.931 129.407C105.931 129.177 105.66 128.918 105.328 128.831C104.996 128.745 104.725 128.457 104.725 128.193C104.725 127.86 104.446 127.712 103.82 127.712C103.193 127.712 102.915 127.564 102.915 127.231C102.915 126.967 102.643 126.68 102.311 126.593C101.98 126.506 101.708 126.247 101.708 126.018C101.708 125.742 101.35 125.601 100.652 125.601C99.7979 125.601 99.5967 125.486 99.5967 124.997C99.5967 124.595 99.3955 124.394 98.9934 124.394C98.6583 124.394 98.3901 124.193 98.3901 123.942C98.3901 123.693 98.2167 123.489 98.0046 123.489C97.7926 123.489 97.3868 123.218 97.1027 122.886C96.8186 122.554 96.3133 122.283 95.98 122.283C95.6422 122.283 95.3737 122.082 95.3737 121.83C95.3737 121.579 95.1055 121.378 94.7704 121.378C94.3683 121.378 94.1671 121.177 94.1671 120.774C94.1671 120.372 93.966 120.171 93.5639 120.171C93.2321 120.171 92.9606 119.978 92.9606 119.743C92.9606 119.507 92.5534 119.225 92.0557 119.115C91.558 119.006 91.1507 118.724 91.1507 118.488C91.1507 118.252 90.8793 118.06 90.5475 118.06C90.0591 118.06 89.9442 117.859 89.9442 117.004L87.8327 119.756ZM93.5639 111.725C93.966 111.725 94.1671 111.926 94.1671 112.329C94.1671 112.66 94.3563 112.932 94.5873 112.932C94.8184 112.932 95.0856 113.135 95.1813 113.384C95.2766 113.633 95.5625 113.837 95.8168 113.837C96.0708 113.837 96.2786 114.04 96.2786 114.289C96.2786 114.538 96.4949 114.742 96.7594 114.742C97.0237 114.742 97.3111 115.013 97.3977 115.345C97.4846 115.677 97.7434 115.948 97.9729 115.948C98.2022 115.948 98.3901 116.152 98.3901 116.401C98.3901 116.65 98.6064 116.853 98.8709 116.853C99.1352 116.853 99.4226 117.125 99.5092 117.456C99.5967 117.79 99.9206 118.06 100.235 118.06C100.547 118.06 100.803 118.263 100.803 118.512C100.803 118.761 101.007 118.965 101.256 118.965C101.505 118.965 101.708 119.221 101.708 119.534C101.708 119.946 102 120.159 102.764 120.302C103.396 120.421 103.82 120.676 103.82 120.939C103.82 121.18 104.023 121.378 104.272 121.378C104.521 121.378 104.725 121.581 104.725 121.83C104.725 122.081 104.993 122.283 105.328 122.283C105.73 122.283 105.931 122.484 105.931 122.886C105.931 123.288 106.132 123.489 106.534 123.489C106.869 123.489 107.138 123.69 107.138 123.942C107.138 124.191 107.341 124.394 107.59 124.394C107.841 124.394 108.043 124.662 108.043 124.997C108.043 125.4 108.244 125.601 108.646 125.601C108.981 125.601 109.249 125.802 109.249 126.053C109.249 126.302 109.465 126.506 109.73 126.506C109.994 126.506 110.282 126.777 110.368 127.109C110.455 127.441 110.714 127.712 110.943 127.712C111.173 127.712 111.361 127.91 111.361 128.151C111.361 128.413 111.784 128.669 112.416 128.788C113.021 128.901 113.472 129.165 113.472 129.405C113.472 129.635 113.676 129.824 113.925 129.824C114.173 129.824 114.377 130.04 114.377 130.304C114.377 130.569 114.648 130.856 114.98 130.943C115.312 131.03 115.584 131.281 115.584 131.503C115.584 131.724 115.821 132.045 116.111 132.216C116.572 132.488 116.581 132.566 116.187 132.83L119.807 131.507C119.807 131.271 119.399 130.989 118.902 130.879C118.404 130.77 117.997 130.488 117.997 130.252C117.997 130.016 117.725 129.824 117.393 129.824C117.043 129.824 116.79 129.622 116.79 129.343C116.79 129.079 116.519 128.791 116.187 128.705C115.855 128.618 115.584 128.359 115.584 128.129C115.584 127.9 115.38 127.712 115.131 127.712C114.882 127.712 114.679 127.496 114.679 127.231C114.679 126.967 114.407 126.68 114.075 126.593C113.744 126.506 113.472 126.247 113.472 126.018C113.472 125.789 113.201 125.601 112.869 125.601C112.467 125.601 112.266 125.4 112.266 124.997C112.266 124.662 112.064 124.394 111.813 124.394C111.564 124.394 111.361 124.191 111.361 123.942C111.361 123.69 111.092 123.489 110.757 123.489C110.426 123.489 110.154 123.301 110.154 123.072C110.154 122.843 109.883 122.584 109.551 122.497C109.219 122.41 108.948 122.123 108.948 121.859C108.948 121.594 108.744 121.378 108.495 121.378C108.246 121.378 108.043 121.18 108.043 120.939C108.043 120.676 107.619 120.421 106.987 120.302C106.223 120.159 105.931 119.946 105.931 119.534C105.931 119.221 105.727 118.965 105.479 118.965C105.23 118.965 105.026 118.761 105.026 118.512C105.026 118.261 104.758 118.06 104.423 118.06C104.021 118.06 103.82 117.859 103.82 117.456C103.82 117.054 103.618 116.853 103.216 116.853C102.881 116.853 102.613 116.652 102.613 116.401C102.613 116.152 102.409 115.948 102.161 115.948C101.912 115.948 101.708 115.76 101.708 115.531C101.708 115.302 101.437 115.043 101.105 114.956C100.773 114.869 100.502 114.582 100.502 114.318C100.502 114.053 100.298 113.837 100.049 113.837C99.8003 113.837 99.5967 113.62 99.5967 113.356C99.5967 113.092 99.3252 112.804 98.9934 112.718C98.6616 112.631 98.3901 112.372 98.3901 112.142C98.3901 111.913 98.2167 111.725 98.0046 111.725C97.7926 111.725 97.3868 111.454 97.1027 111.122C96.8186 110.79 96.3293 110.519 96.015 110.519C95.6322 110.519 95.3909 110.245 95.2832 109.689L93.5639 111.725ZM41.5511 133.869L43.3827 133.074C43.1101 133.113 42.8135 133.136 42.5113 133.137C41.9768 133.14 41.6818 133.303 41.6818 133.594C41.6818 133.709 41.6399 133.8 41.5511 133.869ZM109.702 3.13494C109.453 3.13494 109.249 2.93134 109.249 2.68248C109.249 2.28884 107.858 2.23002 98.5409 2.23002C89.2236 2.23002 87.8327 2.28884 87.8327 2.68248C87.8327 2.93586 87.5636 3.13494 87.2213 3.13494C86.6316 3.13494 86.6126 3.28908 86.6934 7.43331L86.777 11.7317L97.5606 11.811C107.934 11.887 108.344 11.9121 108.344 12.4644C108.344 12.7805 108.514 13.1102 108.721 13.1973C108.991 13.3108 108.948 13.4504 108.57 13.6899C108.28 13.8736 108.043 14.2208 108.043 14.4615C108.043 14.8356 106.489 14.8989 97.3344 14.8989H86.6262V20.3284V25.7579H97.9376C107.368 25.7579 109.249 25.8273 109.249 26.1751C109.249 26.4046 109.521 26.6635 109.852 26.7503C110.184 26.8369 110.456 27.1244 110.456 27.3886C110.456 27.6531 110.659 27.8694 110.908 27.8694C111.159 27.8694 111.361 28.1376 111.361 28.4727C111.361 28.8045 111.558 29.076 111.799 29.076C112.062 29.076 112.318 29.4998 112.436 30.1317C112.55 30.7365 112.813 31.1874 113.053 31.1874C113.32 31.1874 113.472 31.5256 113.472 32.1207C113.472 32.8 113.636 33.0965 114.075 33.2115C114.529 33.33 114.679 33.6229 114.679 34.39C114.679 35.0958 114.818 35.4104 115.131 35.4104C115.38 35.4104 115.584 35.6182 115.584 35.8722C115.584 36.1265 115.784 36.4109 116.028 36.5048C116.272 36.5986 116.559 37.1373 116.665 37.702C116.771 38.2663 117.035 38.7284 117.252 38.7284C117.469 38.7284 117.735 39.1314 117.844 39.6237C117.999 40.3298 118.243 40.557 118.999 40.6975C120.411 40.9606 133.289 40.7316 133.582 40.4381C133.72 40.3003 133.873 36.4655 133.922 31.9168L134.011 23.6465L133.984 20.3284V17.5005C133.984 14.1415 133.756 12.7874 133.192 12.7874C132.919 12.7874 132.777 12.4264 132.777 11.7317C132.777 11.0319 132.636 10.6759 132.358 10.6759C132.118 10.6759 131.855 10.225 131.741 9.6202C131.623 8.98827 131.367 8.56446 131.104 8.56446C130.863 8.56446 130.666 8.29298 130.666 7.96118C130.666 7.62606 130.464 7.3579 130.213 7.3579C129.964 7.3579 129.761 7.15429 129.761 6.90544C129.761 6.65418 129.492 6.45298 129.157 6.45298C128.807 6.45298 128.554 6.25179 128.554 5.97217C128.554 5.70793 128.283 5.42047 127.951 5.3339C127.619 5.24703 127.348 4.98822 127.348 4.75867C127.348 4.48297 126.989 4.3415 126.292 4.3415C125.594 4.3415 125.236 4.20003 125.236 3.92434C125.236 3.36389 124.285 3.14399 121.843 3.13917C120.236 3.13585 119.807 3.03963 119.807 2.68248C119.807 2.34073 119.438 2.23002 118.298 2.23002C117.159 2.23002 116.79 2.34073 116.79 2.68248C116.79 2.93134 116.587 3.13494 116.338 3.13494H112.869C112.534 3.13494 112.266 2.93375 112.266 2.68248C112.266 2.36637 111.947 2.23002 111.21 2.23002C110.473 2.23002 110.154 2.36637 110.154 2.68248C110.154 2.93134 109.95 3.13494 109.702 3.13494ZM23.7343 6.45298C24.0504 6.45298 24.1867 6.13445 24.1867 5.39724C24.1867 4.66003 24.0504 4.3415 23.7343 4.3415C23.4854 4.3415 23.2818 4.53908 23.2818 4.78039C23.2818 5.04282 22.858 5.29861 22.226 5.41715C21.3211 5.58697 21.1703 5.73448 21.1703 6.45147C21.1703 7.03394 20.9872 7.33528 20.567 7.44538C20.2352 7.53195 19.9638 7.81941 19.9638 8.08365C19.9638 8.34818 19.7601 8.56446 19.5113 8.56446C19.26 8.56446 19.0588 8.83262 19.0588 9.16774C19.0588 9.49954 18.8709 9.77102 18.6417 9.77102C18.4121 9.77102 18.1533 10.0425 18.0664 10.3743C17.9799 10.7061 17.6924 10.9776 17.4282 10.9776C17.0994 10.9776 16.9474 11.2527 16.9474 11.8472C16.9474 12.4635 16.7715 12.763 16.3441 12.8749C15.9049 12.9898 15.7408 13.2863 15.7408 13.9656C15.7408 14.5942 15.593 14.8989 15.2883 14.8989C15.0371 14.8989 14.8359 15.1671 14.8359 15.5022C14.8359 15.834 14.6383 16.1055 14.397 16.1055C14.1346 16.1055 13.8788 16.5293 13.7602 17.1612C13.6468 17.766 13.3832 18.2169 13.1434 18.2169C12.8635 18.2169 12.7244 18.5771 12.7244 19.301C12.7244 20.1311 12.5832 20.4219 12.1211 20.5426C11.6216 20.6732 11.5178 20.954 11.5178 22.1735C11.5178 23.2818 11.4059 23.6465 11.0654 23.6465C10.7903 23.6465 10.6129 23.9273 10.6129 24.3628C10.6129 25.7217 10.2347 26.9645 9.82111 26.9645C9.51193 26.9645 9.40636 27.4604 9.40636 28.9101C9.40636 30.4156 9.29204 30.9199 8.90172 31.1383C8.50958 31.3579 8.3666 32.0004 8.26043 34.0189C8.16782 35.7853 8.00645 36.617 7.75669 36.617C7.49185 36.617 7.33439 37.9427 7.19232 41.3678C6.79778 50.8791 7.0047 55.9219 7.78927 55.9219C8.01519 55.9219 8.1998 56.1255 8.1998 56.3744C8.1998 56.7219 8.58529 56.8268 9.85882 56.8268C11.0702 56.8268 11.5178 56.7143 11.5178 56.4097C11.5178 56.1801 11.8098 55.9159 12.1667 55.8227C12.7826 55.6616 12.8055 55.5343 12.6191 53.3287C12.5111 52.0504 12.4228 50.4143 12.4228 49.6927C12.4228 48.7278 12.303 48.3809 11.9703 48.3809C11.5923 48.3809 11.5178 47.7607 11.5178 44.6104C11.5178 41.4601 11.5923 40.8399 11.9703 40.8399C12.316 40.8399 12.4228 40.4599 12.4228 39.228C12.4228 35.1588 12.8179 31.1874 13.2227 31.1874C13.5277 31.1874 13.6293 30.6216 13.6293 28.9251C13.6293 27.2001 13.7286 26.6629 14.0465 26.6629C14.5038 26.6629 14.8253 25.7676 14.8317 24.476C14.8344 23.9415 14.997 23.6465 15.2883 23.6465C15.6313 23.6465 15.7408 23.2745 15.7408 22.1099C15.7408 20.8273 15.8403 20.5474 16.3441 20.4159C16.7974 20.2973 16.9474 20.0045 16.9474 19.2374C16.9474 18.5315 17.0867 18.2169 17.3998 18.2169C17.6912 18.2169 17.8538 17.9219 17.8565 17.3874C17.8628 16.0958 18.1844 15.2005 18.6417 15.2005C18.9273 15.2005 19.0588 14.8202 19.0588 13.994C19.0588 13.1527 19.1885 12.7874 19.4875 12.7874C19.723 12.7874 20.0054 12.3802 20.1146 11.8825C20.2238 11.3848 20.5061 10.9776 20.7417 10.9776C20.9776 10.9776 21.1703 10.7061 21.1703 10.3743C21.1703 10.0425 21.3588 9.77102 21.5893 9.77102C21.8291 9.77102 22.0927 9.32007 22.2061 8.71528C22.3247 8.08335 22.5805 7.65954 22.8429 7.65954C23.0842 7.65954 23.2818 7.38807 23.2818 7.05626C23.2818 6.72114 23.483 6.45298 23.7343 6.45298ZM102.127 29.9809C101.897 29.9809 101.708 29.7773 101.708 29.5284C101.708 29.1598 101.205 29.076 98.9934 29.076H96.2786V30.1317C96.2786 30.8544 96.4171 31.1874 96.7175 31.1874C96.9799 31.1874 97.2357 31.6113 97.3543 32.2432C97.4677 32.848 97.7313 33.2989 97.9711 33.2989C98.2489 33.2989 98.3901 33.6549 98.3901 34.3547C98.3901 35.2092 98.505 35.4104 98.9934 35.4104C99.4817 35.4104 99.5967 35.6116 99.5967 36.4661C99.5967 37.166 99.7378 37.5219 100.016 37.5219C100.255 37.5219 100.519 37.9728 100.632 38.5776C100.751 39.2096 101.007 39.6334 101.269 39.6334C101.57 39.6334 101.708 39.9664 101.708 40.6891C101.708 41.4541 101.841 41.7448 102.189 41.7448C102.453 41.7448 102.741 42.0163 102.827 42.3481C102.914 42.6799 103.173 42.9514 103.402 42.9514C103.678 42.9514 103.82 43.3094 103.82 44.0071C103.82 44.7299 103.958 45.0629 104.259 45.0629C104.521 45.0629 104.777 45.4867 104.895 46.1186C105.009 46.7234 105.272 47.1744 105.512 47.1744C105.791 47.1744 105.931 47.5318 105.931 48.2395C105.931 48.888 106.101 49.37 106.365 49.4713C106.604 49.563 106.886 50.0336 106.992 50.5177C107.099 51.0016 107.378 51.3973 107.614 51.3973C107.85 51.3973 108.043 51.6688 108.043 52.0006C108.043 52.5656 108.244 52.6039 111.21 52.6039C114.176 52.6039 114.377 52.5656 114.377 52.0006C114.377 51.6655 114.176 51.3973 113.925 51.3973C113.608 51.3973 113.472 51.0788 113.472 50.3416C113.472 49.487 113.357 49.2858 112.869 49.2858C112.38 49.2858 112.266 49.0846 112.266 48.2301C112.266 47.4929 112.129 47.1744 111.813 47.1744C111.562 47.1744 111.361 46.9062 111.361 46.5711C111.361 46.2393 111.168 45.9678 110.932 45.9678C110.696 45.9678 110.414 45.5606 110.305 45.0629C110.196 44.5652 109.913 44.158 109.678 44.158C109.387 44.158 109.249 43.8096 109.249 43.0739C109.249 42.2438 109.108 41.953 108.646 41.8323C108.192 41.7138 108.043 41.4209 108.043 40.6538C108.043 39.9842 107.899 39.6334 107.624 39.6334C107.384 39.6334 107.12 39.1824 107.007 38.5776C106.888 37.9457 106.632 37.5219 106.37 37.5219C106.07 37.5219 105.931 37.1889 105.931 36.4661C105.931 35.6116 105.816 35.4104 105.328 35.4104C104.926 35.4104 104.725 35.2092 104.725 34.8071C104.725 34.472 104.523 34.2038 104.272 34.2038C103.956 34.2038 103.82 33.8853 103.82 33.1481C103.82 32.4254 103.681 32.0924 103.381 32.0924C103.118 32.0924 102.863 31.6686 102.744 31.0366C102.631 30.4318 102.367 29.9809 102.127 29.9809ZM131.721 56.8268C130.984 56.8268 130.666 56.6905 130.666 56.3744C130.666 55.9889 129.861 55.9219 125.236 55.9219C120.611 55.9219 119.807 55.9889 119.807 56.3744C119.807 56.7478 119.254 56.8268 116.639 56.8268C114.069 56.8268 113.472 56.9095 113.472 57.2657C113.472 57.5281 113.896 57.7839 114.528 57.9025C115.108 58.0114 115.586 58.2551 115.589 58.4439C115.595 58.8611 116.907 60.1449 117.327 60.1449C117.492 60.1449 117.717 60.62 117.826 61.2006C117.945 61.8325 118.2 62.2564 118.463 62.2564C118.763 62.2564 118.902 62.5894 118.902 63.3121C118.902 64.1666 119.017 64.3678 119.505 64.3678C119.993 64.3678 120.108 64.569 120.108 65.4236C120.108 66.1608 120.245 66.4793 120.561 66.4793C120.908 66.4793 121.013 66.8648 121.013 68.1383C121.013 69.3497 121.126 69.7973 121.431 69.7973C121.729 69.7973 121.88 70.3334 121.962 71.6826C122.148 74.7614 121.925 77.0367 121.438 77.0367C121.156 77.0367 121.013 77.3809 121.013 78.0571C121.013 78.8607 121.158 79.1165 121.692 79.2598C122.973 79.6034 124.331 79.4752 124.331 79.0109C124.331 78.7485 124.755 78.4927 125.387 78.3742C126.347 78.1941 126.443 78.0834 126.443 77.154C126.443 76.4464 126.582 76.1318 126.895 76.1318C127.195 76.1318 127.348 75.8319 127.348 75.2419C127.348 74.7385 127.558 74.2342 127.832 74.0809C128.123 73.9177 128.379 73.2508 128.474 72.4068C128.569 71.564 128.784 71.0039 129.012 71.0039C129.221 71.0039 129.481 70.5288 129.59 69.9482C129.708 69.3162 129.964 68.8924 130.227 68.8924C130.538 68.8924 130.666 68.5407 130.666 67.6859C130.666 66.8576 130.797 66.4793 131.085 66.4793C131.324 66.4793 131.588 66.0284 131.701 65.4236C131.81 64.8429 132.079 64.3678 132.299 64.3678C132.551 64.3678 132.757 63.8487 132.857 62.9649C132.952 62.1209 133.208 61.454 133.499 61.2908C134.288 60.8498 134.024 58.0334 133.194 58.0334C132.965 58.0334 132.777 57.7619 132.777 57.4301C132.777 56.9418 132.576 56.8268 131.721 56.8268Z" fill="#F7F779"/>
<path d="M112.869 3.13494C113.454 3.13494 113.472 3.33734 113.476 9.99725C113.481 17.192 113.579 18.2169 114.261 18.2169C114.491 18.2169 114.679 18.4884 114.679 18.8202C114.679 19.1553 114.88 19.4235 115.131 19.4235C115.38 19.4235 115.584 19.6271 115.584 19.876C115.584 20.1248 115.8 20.3284 116.064 20.3284C116.329 20.3284 116.616 20.5999 116.703 20.9317C116.79 21.2656 117.114 21.535 117.429 21.535C117.741 21.535 117.997 21.7229 117.997 21.9521C117.997 22.4094 118.892 22.731 120.184 22.7373C120.718 22.74 121.013 22.9026 121.013 23.194C121.013 23.5822 121.936 23.6465 127.512 23.6465H134.011L133.984 20.3284H127.498C121.935 20.3284 121.013 20.2642 121.013 19.876C121.013 19.5598 120.695 19.4235 119.957 19.4235C119.103 19.4235 118.902 19.3086 118.902 18.8202C118.902 18.4181 118.7 18.2169 118.298 18.2169C117.896 18.2169 117.695 18.0157 117.695 17.6137C117.695 17.2785 117.494 17.0104 117.243 17.0104C116.94 17.0104 116.79 16.7078 116.79 16.0961C116.79 15.5616 116.602 15.1094 116.338 15.0081C115.957 14.8618 115.885 13.9062 115.885 8.98464C115.885 3.98587 115.951 3.13494 116.338 3.13494H112.869Z" fill="white"/>
</g>
<defs>
<filter id="filter0_d_30_27" x="0" y="0" width="141" height="158.325" filterUnits="userSpaceOnUse" color-interpolation-filters="sRGB">
<feFlood flood-opacity="0" result="BackgroundImageFix"/>
<feColorMatrix in="SourceAlpha" type="matrix" values="0 0 0 0 0 0 0 0 0 0 0 0 0 0 0 0 0 0 127 0" result="hardAlpha"/>
<feOffset dy="4"/>
<feGaussianBlur stdDeviation="2"/>
<feComposite in2="hardAlpha" operator="out"/>
<feColorMatrix type="matrix" values="0 0 0 0 0.964706 0 0 0 0 0.964706 0 0 0 0 0.47451 0 0 0 1 0"/>
<feBlend mode="normal" in2="BackgroundImageFix" result="effect1_dropShadow_30_27"/>
<feBlend mode="normal" in="SourceGraphic" in2="effect1_dropShadow_30_27" result="shape"/>
</filter>
</defs>
</svg>
