<svg width="131" height="167" viewBox="0 0 131 167" fill="none" xmlns="http://www.w3.org/2000/svg">
<g filter="url(#filter0_d_30_30)">
<path fill-rule="evenodd" clip-rule="evenodd" d="M62.6619 11.4405C62.4278 7.76482 62.9504 4.01838 63.8486 2.93514C65.106 1.42051 69.85 1 85.6536 1C108.236 1 108.67 1.18916 108.67 11.02C108.67 16.5736 105.751 20.052 101.088 20.052C98.5177 20.052 97.7829 20.7692 97.7829 23.2799C97.7829 26.0166 98.6484 26.6467 103.459 27.4156C107.629 28.0824 110.652 29.8447 114.856 34.0538C119.974 39.1788 120.685 40.6934 121.572 48.3728C122.118 53.0976 122.281 57.2469 121.933 57.5939C121.586 57.9423 120.897 54.7892 120.403 50.5896C119.456 42.5347 117.063 36.6735 113.523 33.7354C113.083 33.3707 112.733 33.1199 112.454 33.0204L107.309 29.578H98.7083H90.1063H83.4939H80.0918H76.0092L70.2256 29.6637C63.4122 29.7654 58.9227 31.4462 57.6376 33.8483L53.2053 39.3387C52.7576 39.5383 52.423 40.0573 52.1112 40.869C50.8619 44.1269 47.7497 71.0106 48.4206 72.7579C48.8315 73.8289 51.6158 74.4862 55.742 74.4862H62.4006L66.0845 73.8058L75.1301 74.2086L84.1743 74.6101L86.896 74.4862H95.7416H104.587L109.35 75.1258L115.473 74.6767C118.841 74.4304 121.975 73.618 122.436 72.8695C122.899 72.1224 122.97 68.659 122.597 65.1739C121.75 57.2877 122.99 58.0484 124.011 66.0421C124.637 70.9371 124.224 72.4613 121.477 75.4266C117.617 79.5894 117.227 83.7401 120.577 84.9757C124.34 86.3651 124.956 88.1737 124.98 97.8834C124.997 105.723 124.585 107.283 122.022 109.078C117.904 111.963 117.77 115.218 121.707 116.715C124.393 117.736 125 118.92 125 123.141C125 129.458 121.814 134.364 117.71 134.364C113.057 134.364 111.391 131.747 111.391 124.438C111.391 118.924 111.86 117.657 114.113 117.067C115.825 116.62 116.835 115.211 116.835 113.271C116.835 111.33 115.825 109.922 114.113 109.474C111.67 108.836 111.391 107.618 111.391 97.6208C111.391 87.6239 111.67 86.406 114.113 85.7677C116.052 85.2601 116.835 83.9115 116.835 81.0728V77.0882L106.969 77.4883C97.9176 77.8557 97.0671 78.1415 96.6683 80.9476C96.3485 83.193 97.1637 84.362 99.7303 85.3377C103.191 86.6536 103.226 86.8183 103.226 101.558C103.226 117.462 102.632 120.755 99.7589 120.755C98.76 120.755 97.5992 121.312 97.1787 121.994C96.0423 123.832 97.8128 127.56 99.8242 127.56C102.202 127.56 103.226 130.695 103.226 137.967C103.226 144.483 101.374 149.333 98.8852 149.333C98.0442 149.333 98.4048 148.181 99.6894 146.76C101.416 144.852 101.91 142.302 101.601 136.894L101.185 129.601H96.422H91.659L91.2562 137.265C90.9582 142.918 91.4304 145.508 93.0539 147.131C94.2651 148.343 94.7223 149.333 94.0691 149.333C91.063 149.333 89.6178 145.449 89.6178 137.366C89.6178 129.81 89.9756 128.572 92.3395 127.954C93.8364 127.562 95.0612 126.11 95.0612 124.728C95.0612 123.344 93.8364 121.557 92.3395 120.755C89.8518 119.423 89.6178 117.906 89.6178 103.064C89.6178 88.2227 89.8518 86.7054 92.3395 85.3731C93.9507 84.5103 95.0612 82.5234 95.0612 80.5026C95.0612 77.1358 94.9264 77.0936 85.195 77.4883C76.4106 77.8448 75.2852 78.1973 74.9259 80.704C74.6511 82.6241 75.6241 84.0204 77.9879 85.0968L81.4526 86.6754V106.47V126.267L78.0505 127.56C76.1793 128.271 74.6483 129.802 74.6483 130.962C74.6483 132.121 76.1793 133.652 78.0505 134.364C81.16 135.546 81.4526 136.363 81.4526 143.856C81.4526 150.241 80.8498 152.658 78.7309 154.777C75.4199 158.088 73.5855 158.19 70.3331 155.246C68.4129 153.508 67.8441 150.992 67.8441 144.231C67.8441 136.615 68.1992 135.376 70.5658 134.759C72.0627 134.367 73.2875 132.915 73.2875 131.532C73.2875 130.148 72.0627 128.361 70.5658 127.56C68.0373 126.207 67.8441 124.71 67.8441 106.466C67.8441 88.2227 68.0373 86.7258 70.5658 85.3731C72.158 84.5212 73.2875 82.5234 73.2875 80.5624C73.2875 77.3195 72.9745 77.2079 63.8418 77.2079C58.646 77.2079 54.0137 77.8258 53.5469 78.581C52.1425 80.855 54.147 85.0329 57.0021 85.7786C59.4789 86.4264 59.6789 87.7165 59.6789 103.064C59.6789 118.504 59.4911 119.698 56.9572 120.361C55.2452 120.808 54.2355 122.217 54.2355 124.157C54.2355 126.098 55.2452 127.507 56.9572 127.954C59.3251 128.573 59.6789 129.81 59.6789 137.472C59.6789 146.456 57.6975 150.398 53.9416 148.888C52.8325 148.443 53.0556 148.148 54.5499 148.08C57.4199 147.949 58.6392 143.626 58.0677 135.616C57.6472 129.73 57.5342 129.601 52.8746 129.601H48.1116L47.6952 136.894C47.3863 142.302 47.8803 144.852 49.6072 146.76C50.8919 148.181 51.2525 149.333 50.4115 149.333C47.9225 149.333 46.0704 144.483 46.0704 137.967C46.0704 130.575 47.0978 127.56 49.6181 127.56C52.6814 127.56 51.9506 121.187 48.7921 120.361C46.2582 119.698 46.0704 118.504 46.0704 103.064C46.0704 87.6239 46.2582 86.4305 48.7921 85.7677C52.4419 84.8124 52.4038 78.5756 48.7295 75.4279C46.2758 73.3281 46.054 72.0775 46.8637 64.9194C47.8259 56.4181 47.551 55.9065 43.2588 58.2036C41.4557 59.1684 40.6269 61.0573 40.6269 64.1982C40.6269 68.2181 39.8295 69.2619 34.1629 72.6559C25.2152 78.0149 22.8474 78.8287 20.9 77.212C19.7092 76.224 18.7063 76.4254 17.4856 77.8965C16.0648 79.6085 16.1832 80.4536 18.1538 82.631C20.4536 85.1717 20.4114 85.5473 17.1508 91.7909C13.5935 98.6006 9.57628 100.651 5.85026 97.5582C1.38121 93.8498 5.71554 79.9296 11.3386 79.9296C15.3708 79.9296 17.687 76.1383 16.8827 70.8555C16.3697 67.486 17.6557 65.7495 27.0959 57.0523C33.0361 51.5803 38.5108 47.4828 39.262 47.9468C40.0118 48.4109 40.6269 50.591 40.6269 52.7928C40.6269 57.349 41.4979 57.6674 45.7669 54.6762C47.6 53.393 48.8043 51.1135 48.822 48.8926C48.8588 44.3678 53.0053 35.001 56.1108 32.4317C57.3791 31.3825 61.61 29.4827 65.5115 28.2103C74.1584 25.392 75.1001 21.8959 67.8441 19.5498C63.3668 18.1032 63.0552 17.6161 62.6619 11.4405ZM105.575 17.0744C107.381 15.5761 107.912 8.23703 106.483 4.51373C105.782 2.68474 102.636 2.36086 85.6168 2.36086C74.5939 2.36086 65.1673 2.76911 64.6692 3.26855C63.077 4.85939 63.6962 15.5816 65.4626 17.0377C67.7542 18.9266 103.305 18.9592 105.575 17.0744ZM85.5352 26.8563C96.241 26.8563 96.422 26.7991 96.422 23.4541C96.422 20.1091 96.241 20.052 85.5352 20.052C74.8293 20.052 74.6483 20.1091 74.6483 23.4541C74.6483 26.7991 74.8293 26.8563 85.5352 26.8563ZM38.5856 68.2045L38.9885 59.0977C39.2089 54.0884 38.9027 49.9908 38.308 49.9922C36.4559 49.9935 17.4924 67.8915 17.4924 69.6375C17.4924 70.5465 18.89 72.6042 20.5992 74.2086L23.706 77.1277L31.1459 72.6654L38.5856 68.2045ZM17.4869 85.8725C17.491 84.0095 16.3955 82.6745 14.4305 82.1478C9.77225 80.8999 9.5477 80.9993 7.32134 85.305C3.62934 92.4427 5.10043 97.6208 10.8187 97.6208C12.709 97.6208 17.4815 89.212 17.4869 85.8725ZM57.6376 118.714V103.064V87.4144L53.2053 86.987C50.3707 86.7135 48.5131 87.2374 48.0518 88.4404C47.6558 89.4747 47.5061 96.709 47.7211 104.518L48.1116 118.714H52.8746H57.6376ZM79.4113 125.518V106.466V87.4144L74.979 86.987C72.1648 86.7162 70.2868 87.2388 69.8336 88.42C69.4403 89.4434 69.292 98.2087 69.5029 107.899L69.8853 125.518H74.6483H79.4113ZM101.185 118.714V103.064V87.4144L96.7527 86.987C93.918 86.7135 92.0605 87.2374 91.5992 88.4404C91.2031 89.4747 91.0534 96.709 91.2685 104.518L91.659 118.714H96.422H101.185ZM122.959 107.827V97.6208V87.4144L117.797 86.9884L112.635 86.5625L113.034 97.1948L113.433 107.827H118.196H122.959ZM118.42 133.003C121.624 133.003 123.9 128.446 123.381 123.074C122.997 119.107 122.497 118.676 117.856 118.292L112.752 117.869V123.804C112.752 130.125 114.525 133.003 118.42 133.003ZM71.8286 154.724C77.6776 157.854 80.6211 153.334 79.8414 142.42C79.4413 136.828 79.1201 136.377 75.2798 136.001C73.0071 135.778 70.7114 136.034 70.1766 136.567C69.6417 137.102 69.2049 141.091 69.2049 145.429C69.2049 151.829 69.7003 153.586 71.8286 154.724Z" fill="#BC69B1"/>
<path d="M66.0845 73.8058L66.3648 61.2791C66.6655 47.8284 65.6272 44.3297 59.9552 39.6619C57.4093 37.5667 56.7376 35.5306 57.6376 33.8483L53.2053 39.3387C54.1703 38.9084 55.661 39.9608 58.5834 42.7606C62.2822 46.3043 62.4006 46.8513 62.4006 60.4517V74.4862L66.0845 73.8058Z" fill="#F1F1F1"/>
<path d="M76.0092 43.6125C76.0092 57.4293 76.0718 57.7069 80.0918 61.5581C83.0407 64.3832 84.1743 66.7375 84.1743 70.0403V74.6101L86.896 74.4862V68.4617C86.896 63.6552 86.2074 61.8942 83.4939 59.7604C80.2659 57.221 80.0918 56.38 80.0918 43.3308V29.578H76.0092V43.6125Z" fill="white"/>
<path d="M109.35 75.1258L108.968 68.342C108.662 62.9244 107.859 60.9607 104.982 58.5914L101.378 55.6234L106.385 50.082C110.631 45.3816 111.391 43.5839 111.391 38.2534C111.391 33.9973 111.538 32.6935 112.454 33.0204L107.309 29.578V36.796C107.309 43.2029 106.794 44.512 102.727 48.4544L98.1462 52.8949L94.4733 49.735C91.312 47.016 90.7527 45.3952 90.4547 38.0779L90.1063 29.578H83.4939C86.7899 29.578 86.896 29.8665 86.896 38.8658V48.155L95.7416 55.3322C104.201 62.195 104.587 62.7693 104.587 68.4971V74.4862L109.35 75.1258Z" fill="white"/>
</g>
<defs>
<filter id="filter0_d_30_30" x="0" y="0" width="131" height="166.362" filterUnits="userSpaceOnUse" color-interpolation-filters="sRGB">
<feFlood flood-opacity="0" result="BackgroundImageFix"/>
<feColorMatrix in="SourceAlpha" type="matrix" values="0 0 0 0 0 0 0 0 0 0 0 0 0 0 0 0 0 0 127 0" result="hardAlpha"/>
<feOffset dx="1" dy="4"/>
<feGaussianBlur stdDeviation="2.5"/>
<feComposite in2="hardAlpha" operator="out"/>
<feColorMatrix type="matrix" values="0 0 0 0 0.737255 0 0 0 0 0.411765 0 0 0 0 0.704706 0 0 0 1 0"/>
<feBlend mode="normal" in2="BackgroundImageFix" result="effect1_dropShadow_30_30"/>
<feBlend mode="normal" in="SourceGraphic" in2="effect1_dropShadow_30_30" result="shape"/>
</filter>
</defs>
</svg>
